<svg width="32" height="40" viewBox="0 0 32 40" fill="none" xmlns="http://www.w3.org/2000/svg">
<path d="M0.216125 23.9057V15.9955L6.52963 19.9479V27.8525L0.216125 23.905V23.9057Z" fill="#119040"/>
<path d="M12.7849 23.9057V15.9955L6.47144 19.9479V27.8525L12.7849 23.905V23.9057Z" fill="#16A34A"/>
<path d="M0.191833 16.0268L6.50534 12.0377L12.8189 16.0268L6.50534 19.9846L0.191833 16.0268Z" fill="#3ADF77"/>
<path d="M6.47144 35.6787L6.51048 27.7686L12.8099 31.7632L12.7709 39.6678L6.47144 35.6787Z" fill="#119040"/>
<path d="M19.0357 35.7467L19.0747 27.8525L12.7516 31.7625L12.7126 39.6512L19.0357 35.746V35.7467Z" fill="#16A34A"/>
<path d="M6.46631 27.7949L12.7997 23.8426L19.0991 27.8684L12.7657 31.7895L6.46631 27.7949Z" fill="#3ADF77"/>
<path d="M6.50085 12.064L6.53989 4.15387L12.8393 8.14849L12.8003 16.0531L6.50085 12.064Z" fill="#119040"/>
<path d="M19.1522 12.1375L19.1912 4.21143L12.8387 8.13739L12.7996 16.058L19.1522 12.1369V12.1375Z" fill="#16A34A"/>
<path d="M6.54883 4.18022L12.8822 0.227905L19.1816 4.25373L12.8483 8.16929L6.54883 4.18022Z" fill="#3ADF77"/>
<path d="M19.0114 35.7835L19.0505 27.8733L25.3499 31.8679L25.3108 39.7725L19.0114 35.7835Z" fill="#119040"/>
<path d="M31.6339 35.8521L31.6729 27.9579L25.3498 31.8631L25.3108 39.7517L31.6339 35.8521Z" fill="#16A34A"/>
<path d="M19.0453 27.874L25.3786 23.9217L31.6781 27.9475L25.3447 31.8686L19.0453 27.874Z" fill="#3ADF77"/>
<path d="M19.1522 12.1327L19.1669 4.23293L25.4663 8.19564L25.4516 16.0899L19.1522 12.132V12.1327Z" fill="#119140"/>
<path d="M31.7747 12.1591L31.7894 4.24889L25.4663 8.19634L25.4516 16.101L31.7747 12.1591Z" fill="#16A34A"/>
<path d="M19.147 4.25928L25.4657 0.27507L31.7747 4.27454L25.4561 8.222L19.147 4.25928Z" fill="#3ADF77"/>
<path d="M31.9078 4.09492C31.8758 4.07481 25.5719 0.0788057 25.5719 0.0788057C25.5067 0.0371951 25.4254 0.0371951 25.3595 0.0788057L19.1688 3.98188L12.9891 0.0316464C12.9238 -0.00996414 12.8425 -0.0106579 12.7766 0.0302591C12.7766 0.0302591 6.46757 3.95552 6.43685 3.97425C6.37157 4.01447 6.32869 4.07134 6.32805 4.15248L6.29029 11.9087L0.175176 15.7722C0.152777 15.7771 0.034379 15.8464 0.0177392 15.8714C-0.0123403 15.9415 0.0049396 16.1301 0.0049396 16.1301V23.905C0.0049396 23.9869 0.0452586 24.0618 0.110538 24.1027L6.28837 27.9648C6.29093 27.9704 6.29541 27.9745 6.29861 27.9801L6.26085 35.6767C6.26085 35.7585 6.30053 35.8341 6.36517 35.875L12.5468 39.7899C12.5545 39.801 12.648 39.8696 12.7433 39.8655C12.8464 39.8613 12.9417 39.7753 12.9609 39.76L18.9928 36.0352L25.2046 39.9688C25.2372 39.9896 25.2743 40 25.3108 40C25.3473 40 25.3908 39.9827 25.4151 39.9702C27.0535 39.1081 31.7382 36.0491 31.7382 36.0491C31.8035 36.0088 31.8445 35.9333 31.8445 35.8521L31.8829 27.9863C31.8874 27.9128 31.849 27.7908 31.7843 27.7491L25.4855 23.7233C25.4203 23.6817 25.339 23.681 25.2737 23.7219L19.0779 27.5883L12.9961 23.7011V16.1987L19.156 12.3969L25.3006 16.2577C25.314 16.273 25.3294 16.2861 25.346 16.2965C25.3787 16.3173 25.4151 16.327 25.4516 16.327C25.4881 16.327 25.5239 16.3166 25.5566 16.2965L31.8797 12.3546C31.945 12.3137 31.9853 12.2388 31.9853 12.157L32 4.2468C32 4.16496 31.9731 4.13306 31.9078 4.09214V4.09492ZM31.424 35.719L25.5233 39.3578L25.5591 31.9976L26.8833 31.1779L31.4598 28.3511L31.4234 35.7183L31.424 35.719ZM25.3774 24.1852L31.2582 27.944L26.6631 30.7888L25.3473 31.6016L19.4683 27.8733L25.378 24.1852H25.3774ZM19.2827 28.2887L25.138 32.0018L25.1015 39.3765L19.2463 35.6683L19.2827 28.2887ZM18.9416 12.0051L13.0121 15.6647L13.0288 12.2499L13.048 8.30869L18.9551 4.65666L18.9416 12.0051ZM12.8809 0.492137L18.733 4.23224L12.8316 7.8794L6.98468 4.1719L12.8809 0.492137ZM12.6268 8.29412L12.6006 13.6335L12.591 15.619L6.71204 11.9045L6.74788 4.57136L12.6268 8.29481V8.29412ZM6.26085 27.4211L0.426693 23.774V16.438L6.26085 20.0949V27.4211ZM0.64877 16.0025L6.48229 12.3165L12.3273 16.0184L6.50085 19.6663L0.64877 16.0032V16.0025ZM12.5744 16.4442V23.7199L6.7402 27.3608V20.1018L12.5744 16.4449V16.4442ZM12.504 39.2344L6.68324 35.5477L6.71908 28.2194L12.5398 31.9109L12.504 39.2344ZM18.8015 35.6288L12.9833 39.2219L13.0192 31.895L18.8373 28.2929L18.8015 35.6288ZM18.6543 27.8497L12.7817 31.4809L6.977 27.7998L12.8412 24.1339L18.6543 27.8497ZM25.2417 15.6946L19.364 12.0016L19.3999 4.68163L25.2551 8.36L25.2417 15.6946ZM25.4663 7.93211L19.597 4.23986L25.4657 0.539989L31.3414 4.26552L25.4663 7.9328V7.93211ZM31.5642 12.0266L25.6628 15.7057L25.6756 8.76085V8.34822L31.5782 4.66152L31.5648 12.0266H31.5642Z" fill="#2E2F35"/>
</svg>
