<svg width="118" height="147" viewBox="0 0 118 147" fill="none" xmlns="http://www.w3.org/2000/svg">
<mask id="path-1-outside-1_1314_4483" maskUnits="userSpaceOnUse" x="0" y="0" width="118" height="147" fill="black">
<rect fill="white" width="118" height="147"/>
<path d="M116.666 15.8441C116.55 15.7712 93.6983 1.28567 93.6983 1.28567C93.4616 1.13483 93.167 1.13483 92.928 1.28567L70.487 15.4343L48.0854 1.11472C47.8488 0.96388 47.5541 0.961365 47.3152 1.10969C47.3152 1.10969 24.4449 15.3388 24.3336 15.4067C24.0969 15.5525 23.9415 15.7586 23.9392 16.0527L23.8023 44.169L1.63501 58.1744C1.55382 58.192 1.12462 58.4434 1.0643 58.5339C0.955266 58.7878 1.01791 59.4716 1.01791 59.4716V87.6557C1.01791 87.9524 1.16406 88.2239 1.4007 88.3722L23.7953 102.373C23.8046 102.393 23.8209 102.408 23.8325 102.428L23.6956 130.328C23.6956 130.625 23.8394 130.899 24.0737 131.047L46.4823 145.238C46.5101 145.278 46.8488 145.527 47.1945 145.512C47.568 145.497 47.9137 145.185 47.9833 145.13L69.849 131.628L92.3666 145.887C92.4849 145.962 92.6195 146 92.7517 146C92.8839 146 93.0417 145.937 93.1299 145.892C99.069 142.767 116.051 131.678 116.051 131.678C116.288 131.532 116.436 131.258 116.436 130.964L116.575 102.45C116.592 102.184 116.452 101.742 116.218 101.591L93.3851 86.9971C93.1484 86.8462 92.8538 86.8437 92.6172 86.992L70.1576 101.007L48.1109 86.9166V59.7205L70.4406 45.9389L92.7146 59.9341C92.7633 59.9894 92.819 60.0372 92.8793 60.0749C92.9976 60.1503 93.1299 60.1855 93.2621 60.1855C93.3943 60.1855 93.5243 60.1478 93.6426 60.0749L116.564 45.7855C116.8 45.6372 116.947 45.3657 116.947 45.069L117 16.3946C117 16.098 116.903 15.9824 116.666 15.834V15.8441ZM114.912 130.481L93.5219 143.672L93.6519 116.991L98.4519 114.02L115.042 103.773L114.91 130.479L114.912 130.481ZM92.993 88.6714L114.311 102.297L97.6538 112.609L92.8839 115.556L71.5727 102.041L92.9953 88.6714H92.993ZM70.8999 103.547L92.1253 117.006L91.9931 143.74L70.7677 130.298L70.8999 103.547ZM69.6634 44.5185L48.1689 57.7847L48.2292 45.4059L48.2988 31.119L69.7121 17.8804L69.6634 44.5185ZM47.6933 2.784L68.9071 16.3419L47.5147 29.5628L26.3195 16.1231L47.6933 2.784ZM46.7723 31.0662L46.6772 50.4213L46.6424 57.6188L25.3312 44.1539L25.4611 17.5712L46.7723 31.0687V31.0662ZM23.6956 100.402L2.54676 87.1806V60.5878L23.6956 73.844V100.402ZM3.35179 59.009L24.4983 45.6472L45.6865 59.0668L24.5656 72.2903L3.35179 59.0115V59.009ZM46.582 60.6104V86.9845L25.4332 100.183V73.8691L46.582 60.6129V60.6104ZM46.3269 143.225L25.2268 129.86L25.3567 103.295L46.4568 116.677L46.3269 143.225ZM69.1553 130.154L48.0645 143.179L48.1944 116.619L69.2852 103.562L69.1553 130.154ZM68.6217 101.955L47.3337 115.118L26.2916 101.774L47.5495 88.4853L68.6217 101.955ZM92.5012 57.8928L71.1946 44.5059L71.3245 17.9709L92.5499 31.305L92.5012 57.8928ZM93.3155 29.7539L72.039 16.3695L93.3131 2.95746L114.613 16.4625L93.3155 29.7564V29.7539ZM115.42 44.5964L94.0277 57.933L94.0741 32.7581V31.2623L115.471 17.898L115.422 44.5964H115.42Z"/>
</mask>
<path d="M116.666 15.8441C116.55 15.7712 93.6983 1.28567 93.6983 1.28567C93.4616 1.13483 93.167 1.13483 92.928 1.28567L70.487 15.4343L48.0854 1.11472C47.8488 0.96388 47.5541 0.961365 47.3152 1.10969C47.3152 1.10969 24.4449 15.3388 24.3336 15.4067C24.0969 15.5525 23.9415 15.7586 23.9392 16.0527L23.8023 44.169L1.63501 58.1744C1.55382 58.192 1.12462 58.4434 1.0643 58.5339C0.955266 58.7878 1.01791 59.4716 1.01791 59.4716V87.6557C1.01791 87.9524 1.16406 88.2239 1.4007 88.3722L23.7953 102.373C23.8046 102.393 23.8209 102.408 23.8325 102.428L23.6956 130.328C23.6956 130.625 23.8394 130.899 24.0737 131.047L46.4823 145.238C46.5101 145.278 46.8488 145.527 47.1945 145.512C47.568 145.497 47.9137 145.185 47.9833 145.13L69.849 131.628L92.3666 145.887C92.4849 145.962 92.6195 146 92.7517 146C92.8839 146 93.0417 145.937 93.1299 145.892C99.069 142.767 116.051 131.678 116.051 131.678C116.288 131.532 116.436 131.258 116.436 130.964L116.575 102.45C116.592 102.184 116.452 101.742 116.218 101.591L93.3851 86.9971C93.1484 86.8462 92.8538 86.8437 92.6172 86.992L70.1576 101.007L48.1109 86.9166V59.7205L70.4406 45.9389L92.7146 59.9341C92.7633 59.9894 92.819 60.0372 92.8793 60.0749C92.9976 60.1503 93.1299 60.1855 93.2621 60.1855C93.3943 60.1855 93.5243 60.1478 93.6426 60.0749L116.564 45.7855C116.8 45.6372 116.947 45.3657 116.947 45.069L117 16.3946C117 16.098 116.903 15.9824 116.666 15.834V15.8441ZM114.912 130.481L93.5219 143.672L93.6519 116.991L98.4519 114.02L115.042 103.773L114.91 130.479L114.912 130.481ZM92.993 88.6714L114.311 102.297L97.6538 112.609L92.8839 115.556L71.5727 102.041L92.9953 88.6714H92.993ZM70.8999 103.547L92.1253 117.006L91.9931 143.74L70.7677 130.298L70.8999 103.547ZM69.6634 44.5185L48.1689 57.7847L48.2292 45.4059L48.2988 31.119L69.7121 17.8804L69.6634 44.5185ZM47.6933 2.784L68.9071 16.3419L47.5147 29.5628L26.3195 16.1231L47.6933 2.784ZM46.7723 31.0662L46.6772 50.4213L46.6424 57.6188L25.3312 44.1539L25.4611 17.5712L46.7723 31.0687V31.0662ZM23.6956 100.402L2.54676 87.1806V60.5878L23.6956 73.844V100.402ZM3.35179 59.009L24.4983 45.6472L45.6865 59.0668L24.5656 72.2903L3.35179 59.0115V59.009ZM46.582 60.6104V86.9845L25.4332 100.183V73.8691L46.582 60.6129V60.6104ZM46.3269 143.225L25.2268 129.86L25.3567 103.295L46.4568 116.677L46.3269 143.225ZM69.1553 130.154L48.0645 143.179L48.1944 116.619L69.2852 103.562L69.1553 130.154ZM68.6217 101.955L47.3337 115.118L26.2916 101.774L47.5495 88.4853L68.6217 101.955ZM92.5012 57.8928L71.1946 44.5059L71.3245 17.9709L92.5499 31.305L92.5012 57.8928ZM93.3155 29.7539L72.039 16.3695L93.3131 2.95746L114.613 16.4625L93.3155 29.7564V29.7539ZM115.42 44.5964L94.0277 57.933L94.0741 32.7581V31.2623L115.471 17.898L115.422 44.5964H115.42Z" fill="#22C55E"/>
<path d="M116.666 15.8441C116.55 15.7712 93.6983 1.28567 93.6983 1.28567C93.4616 1.13483 93.167 1.13483 92.928 1.28567L70.487 15.4343L48.0854 1.11472C47.8488 0.96388 47.5541 0.961365 47.3152 1.10969C47.3152 1.10969 24.4449 15.3388 24.3336 15.4067C24.0969 15.5525 23.9415 15.7586 23.9392 16.0527L23.8023 44.169L1.63501 58.1744C1.55382 58.192 1.12462 58.4434 1.0643 58.5339C0.955266 58.7878 1.01791 59.4716 1.01791 59.4716V87.6557C1.01791 87.9524 1.16406 88.2239 1.4007 88.3722L23.7953 102.373C23.8046 102.393 23.8209 102.408 23.8325 102.428L23.6956 130.328C23.6956 130.625 23.8394 130.899 24.0737 131.047L46.4823 145.238C46.5101 145.278 46.8488 145.527 47.1945 145.512C47.568 145.497 47.9137 145.185 47.9833 145.13L69.849 131.628L92.3666 145.887C92.4849 145.962 92.6195 146 92.7517 146C92.8839 146 93.0417 145.937 93.1299 145.892C99.069 142.767 116.051 131.678 116.051 131.678C116.288 131.532 116.436 131.258 116.436 130.964L116.575 102.45C116.592 102.184 116.452 101.742 116.218 101.591L93.3851 86.9971C93.1484 86.8462 92.8538 86.8437 92.6172 86.992L70.1576 101.007L48.1109 86.9166V59.7205L70.4406 45.9389L92.7146 59.9341C92.7633 59.9894 92.819 60.0372 92.8793 60.0749C92.9976 60.1503 93.1299 60.1855 93.2621 60.1855C93.3943 60.1855 93.5243 60.1478 93.6426 60.0749L116.564 45.7855C116.8 45.6372 116.947 45.3657 116.947 45.069L117 16.3946C117 16.098 116.903 15.9824 116.666 15.834V15.8441ZM114.912 130.481L93.5219 143.672L93.6519 116.991L98.4519 114.02L115.042 103.773L114.91 130.479L114.912 130.481ZM92.993 88.6714L114.311 102.297L97.6538 112.609L92.8839 115.556L71.5727 102.041L92.9953 88.6714H92.993ZM70.8999 103.547L92.1253 117.006L91.9931 143.74L70.7677 130.298L70.8999 103.547ZM69.6634 44.5185L48.1689 57.7847L48.2292 45.4059L48.2988 31.119L69.7121 17.8804L69.6634 44.5185ZM47.6933 2.784L68.9071 16.3419L47.5147 29.5628L26.3195 16.1231L47.6933 2.784ZM46.7723 31.0662L46.6772 50.4213L46.6424 57.6188L25.3312 44.1539L25.4611 17.5712L46.7723 31.0687V31.0662ZM23.6956 100.402L2.54676 87.1806V60.5878L23.6956 73.844V100.402ZM3.35179 59.009L24.4983 45.6472L45.6865 59.0668L24.5656 72.2903L3.35179 59.0115V59.009ZM46.582 60.6104V86.9845L25.4332 100.183V73.8691L46.582 60.6129V60.6104ZM46.3269 143.225L25.2268 129.86L25.3567 103.295L46.4568 116.677L46.3269 143.225ZM69.1553 130.154L48.0645 143.179L48.1944 116.619L69.2852 103.562L69.1553 130.154ZM68.6217 101.955L47.3337 115.118L26.2916 101.774L47.5495 88.4853L68.6217 101.955ZM92.5012 57.8928L71.1946 44.5059L71.3245 17.9709L92.5499 31.305L92.5012 57.8928ZM93.3155 29.7539L72.039 16.3695L93.3131 2.95746L114.613 16.4625L93.3155 29.7564V29.7539ZM115.42 44.5964L94.0277 57.933L94.0741 32.7581V31.2623L115.471 17.898L115.422 44.5964H115.42Z" stroke="#22C55E" mask="url(#path-1-outside-1_1314_4483)"/>
</svg>
