<svg width="64" height="92" viewBox="0 0 64 92" fill="none" xmlns="http://www.w3.org/2000/svg">
<path d="M37.6447 11.0634C37.6379 10.6604 37.7135 10.2622 37.8638 9.90929C38.0141 9.55633 38.2338 9.26113 38.5006 9.05364L48.3936 1.3303C48.6601 1.12195 48.9642 1.00818 49.2755 1.00042C49.5867 0.992675 49.894 1.09121 50.1666 1.28613L60.3221 8.52579C60.5953 8.71975 60.8243 9.00357 60.9859 9.34865C61.1475 9.69372 61.2361 10.0879 61.2427 10.4914L61.4984 25.45C61.5056 25.8526 61.4305 26.2505 61.2808 26.6034C61.1311 26.9563 60.9121 27.2517 60.646 27.4598L50.7513 35.1831C50.4848 35.3915 50.1806 35.5052 49.8694 35.513C49.5581 35.5208 49.2508 35.4222 48.9783 35.2273L38.8228 27.9876C38.5502 27.7931 38.3219 27.509 38.1609 27.164C37.9999 26.819 37.9118 26.4251 37.9056 26.022L37.6447 11.0634Z" fill="#FFD6F5" stroke="black" stroke-width="2"/>
<path d="M37.8836 11.0979L49.6928 18.1123M37.8836 11.1001L37.8035 11.0515M49.6911 18.1123L49.7712 18.1565M49.715 36.9999V18.13" stroke="black"/>
<path d="M49.8001 37.1171L49.6637 37.1104L49.6296 37.1038V37H49.8001V37.1171Z" fill="black" stroke="black" stroke-width="0.05"/>
<path d="M49.7151 18.1323V18.0218M61.1287 10.5039L49.7202 18.1499" stroke="black"/>
<path d="M61.2052 10.4531L61.2444 10.5503L61.166 10.6033L61.0876 10.4045L61.1558 10.3604L61.2052 10.4531Z" fill="black" stroke="black" stroke-width="0.05"/>
<path d="M49.7234 18.1501L49.645 18.2023" stroke="black"/>
<path d="M12.6725 12.3368C12.6657 11.9338 12.7413 11.5357 12.8916 11.1827C13.0419 10.8297 13.2616 10.5345 13.5284 10.327L23.4213 2.60593C23.6879 2.39758 23.992 2.28381 24.3033 2.27606C24.6145 2.2683 24.9218 2.36684 25.1943 2.56176L35.3499 9.80143C35.6231 9.99539 35.8521 10.2792 36.0137 10.6243C36.1753 10.9693 36.2639 11.3635 36.2705 11.767L36.5262 26.7256C36.5334 27.1282 36.4583 27.5261 36.3086 27.879C36.1589 28.2319 35.9399 28.5274 35.6738 28.7354L25.7791 36.4587C25.5126 36.6671 25.2084 36.7809 24.8972 36.7886C24.5859 36.7964 24.2786 36.6978 24.0061 36.5029L13.8506 29.2632C13.578 29.0687 13.3497 28.7847 13.1887 28.4396C13.0277 28.0946 12.9396 27.7007 12.9334 27.2976L12.6725 12.3368Z" fill="#FF8F8F" stroke="black" stroke-width="2"/>
<path d="M1.21192 38.8846C1.21113 38.482 1.29248 38.0853 1.44773 37.7346C1.60297 37.384 1.82661 37.0919 2.09601 36.8879L12.1117 29.314C12.3815 29.1096 12.6875 29.0005 12.9988 28.9974C13.3101 28.9943 13.6158 29.0974 13.8852 29.2964L23.925 36.6877C24.1952 36.8857 24.4196 37.1729 24.5757 37.5204C24.7319 37.8678 24.8142 38.2633 24.8144 38.6669L24.8335 53.6297C24.8337 54.0316 24.7521 54.4274 24.5969 54.7772C24.4417 55.127 24.2183 55.4184 23.9495 55.6221L13.9355 63.196C13.6657 63.4003 13.3598 63.5095 13.0484 63.5126C12.7371 63.5157 12.4314 63.4125 12.162 63.2135L2.12037 55.8267C1.85024 55.6287 1.6258 55.3414 1.46966 54.994C1.31352 54.6465 1.2312 54.2511 1.23097 53.8475L1.21192 38.8846Z" fill="#FFF7A1" stroke="black" stroke-width="2"/>
<path d="M13.3202 66.5456C13.3134 66.1426 13.389 65.7444 13.5393 65.3914C13.6896 65.0385 13.9092 64.7433 14.176 64.5358L24.069 56.8125C24.3355 56.6041 24.6397 56.4903 24.9509 56.4826C25.2622 56.4748 25.5695 56.5734 25.842 56.7683L35.9975 64.0124C36.2703 64.206 36.4989 64.4891 36.6605 64.8333C36.8221 65.1775 36.9109 65.5708 36.9181 65.9736L37.1739 80.9366C37.181 81.3392 37.106 81.737 36.9563 82.09C36.8066 82.4429 36.5876 82.7383 36.3215 82.9464L26.4268 90.6675C26.1605 90.8765 25.8565 90.9911 25.5453 90.9996C25.2341 91.0081 24.9266 90.9103 24.6538 90.7161L14.4982 83.472C14.2261 83.2778 13.9982 82.9945 13.8372 82.6503C13.6762 82.3061 13.5879 81.9131 13.581 81.5108L13.3202 66.5456Z" fill="#6DB1FF" stroke="black" stroke-width="2"/>
<path d="M39.0332 65.9213C39.026 65.5188 39.1011 65.1209 39.2508 64.768C39.4005 64.415 39.6195 64.1196 39.8856 63.9116L49.7803 56.1882C50.0468 55.9799 50.351 55.8661 50.6622 55.8583C50.9735 55.8506 51.2808 55.9491 51.5533 56.144L61.7088 63.3881C61.9816 63.5817 62.2102 63.8648 62.3718 64.2091C62.5334 64.5533 62.6222 64.9465 62.6294 65.3493L62.8852 80.3123C62.8923 80.7149 62.8173 81.1128 62.6676 81.4657C62.5179 81.8186 62.2989 82.1141 62.0328 82.3221L52.1398 90.0388C51.8735 90.2479 51.5695 90.3624 51.2583 90.3709C50.9471 90.3795 50.6396 90.2817 50.3668 90.0874L40.2095 82.8433C39.9368 82.6498 39.7081 82.3666 39.5466 82.0224C39.385 81.6782 39.2961 81.2849 39.2889 80.8821L39.0332 65.9213Z" fill="#C3F7C8" stroke="black" stroke-width="2"/>
<path d="M14.6981 64.0285L26.6777 71.0451M14.6981 64.033L14.6179 63.9844M26.676 71.0429L26.7562 71.0871M26.6999 89.935V71.0606" stroke="black"/>
<path d="M26.7852 90.0497L26.6488 90.0431L26.6147 90.0365V89.9304H26.7852V90.0497Z" fill="black" stroke="black" stroke-width="0.05"/>
<path d="M26.7002 71.0629V70.9525M38.3951 63.7195L26.707 71.085" stroke="black"/>
<path d="M38.429 63.8183L38.3745 63.6682H38.4717L38.6831 63.6461L38.7206 63.635L38.429 63.8183Z" fill="black" stroke="black" stroke-width="0.05"/>
<path d="M26.7085 71.0827L26.6301 71.1335M37.9858 64.0285L49.9672 71.0451M37.9858 64.033L37.9074 63.9844M49.9655 71.0429L50.0456 71.0871M49.9877 89.935V71.0606" stroke="black"/>
<path d="M50.073 90.0497L49.9367 90.0431L49.9026 90.0365V89.9304H50.073V90.0497Z" fill="black" stroke="black" stroke-width="0.05"/>
<path d="M49.9875 71.0625V70.952M49.9961 71.0846L61.6825 63.719L61.7609 63.6704M49.9978 71.0824L49.9193 71.1332M2.47461 37.7993L14.2207 45.5183" stroke="black"/>
<path d="M2.5172 37.7024L2.44049 37.9012L2.36377 37.8504L2.40128 37.751L2.4456 37.656L2.5172 37.7024Z" fill="black" stroke="black" stroke-width="0.05"/>
<path d="M14.2174 45.5161L14.2958 45.5669M14.2174 11.0979L26.0317 18.1123M14.2208 11.1001L14.1406 11.0515M26.0283 18.1123L26.1067 18.1565M26.0521 36.9999V18.13" stroke="black"/>
<path d="M26.1372 37.1171L26.0009 37.1104L25.9668 37.1038V37H26.1372V37.1171Z" fill="black" stroke="black" stroke-width="0.05"/>
<path d="M26.0522 18.1323V18.0219M37.4642 10.5017L26.059 18.15" stroke="black"/>
<path d="M37.5426 10.4531L37.5801 10.5503L37.5017 10.6033L37.4233 10.4045L37.4915 10.3604L37.5426 10.4531Z" fill="black" stroke="black" stroke-width="0.05"/>
<path d="M26.0591 18.1501L25.9807 18.2009M14.3164 45.7373V64.6072V64.7177M14.3164 45.7395V45.6291" stroke="black"/>
<path d="M49.3962 36.7195L49.4371 36.8167L49.369 36.8741L49.2769 36.6886L49.3451 36.6289L49.3962 36.7195Z" fill="white" stroke="white" stroke-width="0.05"/>
<path d="M25.9618 37.8391L25.8868 38.0379L25.8101 37.9937L25.8442 37.8899L25.8902 37.7949L25.9618 37.8391Z" fill="white" stroke="white" stroke-width="0.05"/>
<path d="M38.2927 45.6753L38.3711 45.7252" stroke="white"/>
<path d="M25.7709 37.9431L14.3538 45.6443" stroke="black"/>
<path d="M25.8476 37.8901L25.7999 38.0226L25.7317 37.8459L25.9294 37.7134L25.8476 37.8901Z" fill="black" stroke="black" stroke-width="0.05"/>
<path d="M14.3572 45.6421L14.2788 45.6965" stroke="black"/>
<path d="M26.0416 38.9299C26.0381 38.527 26.117 38.1287 26.2702 37.7753C26.4234 37.4219 26.6455 37.1259 26.9139 36.9175L36.8777 29.1757C37.1463 28.9666 37.4518 28.8521 37.7633 28.8438C38.0749 28.8354 38.3815 28.9335 38.6524 29.1281L48.7435 36.3409C49.0148 36.5347 49.2409 36.8183 49.399 37.1632C49.5571 37.5082 49.6416 37.9022 49.6441 38.3056L49.7663 53.2646C49.7691 53.6667 49.69 54.0641 49.5368 54.4166C49.3837 54.7692 49.162 55.0644 48.894 55.2725L38.9301 63.0188C38.6615 63.2279 38.356 63.3423 38.0445 63.3507C37.733 63.359 37.4263 63.261 37.1555 63.0664L27.0643 55.8536C26.793 55.6598 26.567 55.3761 26.4089 55.0312C26.2508 54.6863 26.1662 54.2922 26.1637 53.8888L26.0416 38.9299Z" fill="black" stroke="white"/>
<path d="M49.5452 37.0439L38.3921 45.7304" stroke="white"/>
<path d="M38.3937 45.7303L38.3189 45.7883M26.1233 37.6655L38.3026 45.6885" stroke="white"/>
<path d="M38.3898 45.6133C38.4011 45.6136 38.4118 45.6196 38.4196 45.6302C38.4273 45.6407 38.4314 45.6548 38.4311 45.6695L38.0088 63.1123C38.0085 63.1269 38.0037 63.1408 37.9954 63.151C37.9872 63.1612 37.9762 63.1667 37.9649 63.1665C37.9536 63.1662 37.9429 63.1602 37.9352 63.1496C37.9274 63.1391 37.9233 63.125 37.9236 63.1103L38.3459 45.6675C38.3462 45.6529 38.3511 45.6389 38.3593 45.6288C38.3675 45.6186 38.3785 45.613 38.3898 45.6133Z" stroke="white" stroke-width="0.5"/>
</svg>
