<svg width="500" height="576" viewBox="0 0 500 576" fill="none" xmlns="http://www.w3.org/2000/svg">
<path d="M0 237.36V344.51L92.61 397.97V290.97L0 237.36Z" fill="#FFEF3B"/>
<path d="M100.88 290.97V397.97L193.49 344.51V237.36L100.88 290.97Z" fill="#E6D735"/>
<path d="M4.08997 229.85L96.79 283.47L189.56 229.85L96.79 175.78L4.08997 229.85Z" fill="#FFF36E"/>
<path d="M101.49 412.52L100.89 519.75L193.43 573.74L193.95 466.66L101.49 412.52Z" fill="#087BFF"/>
<path d="M290.83 406.08L198.36 351.48L105.36 405.09L197.83 459.17L290.83 406.08Z" fill="#3B96FF"/>
<path d="M101.95 61.04L101.35 168.2L193.89 222.27L194.42 115.11L101.95 61.04Z" fill="#FF2929"/>
<path d="M203.01 222.43L296.23 169.35L296.33 61.89L203.62 115.12L203.01 222.43Z" fill="#E62525"/>
<path d="M203.01 573.94L296.23 520.86L296.84 413.4L203.62 466.63L203.01 573.94Z" fill="#076FE6"/>
<path d="M292.21 54.6L199.67 0L106.67 53.62L199.14 107.62L292.21 54.6Z" fill="#FF5C5C"/>
<path d="M305.58 62.28L305.43 169.28L397.89 222.89L398.04 115.96L305.58 62.28Z" fill="#FF70DB"/>
<path d="M305.48 414.41L305.33 521.41L397.79 575.56L397.83 468.09L305.48 414.41Z" fill="#60F770"/>
<path d="M407.24 115.89L407.01 223.04L499.85 169.66L500 62.4301L407.24 115.89Z" fill="#E665C5"/>
<path d="M407.24 468.41L407.01 575.56L499.85 522.17L500 414.94L407.24 468.41Z" fill="#57DE64"/>
<path d="M309.83 54.69L402.52 108.46L495.3 55L402.68 0.700012L309.83 54.69Z" fill="#FFA3E8"/>
<path d="M309.83 406.59L402.52 460.36L495.3 406.89L402.68 352.59L309.83 406.59Z" fill="#79F786"/>
</svg>
