<?xml version="1.0" encoding="utf-8"?>
<!-- Generator: Adobe Illustrator 27.0.0, SVG Export Plug-In . SVG Version: 6.00 Build 0)  -->
<svg version="1.1" id="Camada_1" xmlns="http://www.w3.org/2000/svg" xmlns:xlink="http://www.w3.org/1999/xlink" x="0px" y="0px"
	 viewBox="0 0 1566 1802" style="enable-background:new 0 0 1566 1802;" xml:space="preserve">
<style type="text/css">
	.st0{fill:#242743;}
	.st1{fill:#151826;}
	.st2{fill:#2B2F4C;}
	.st3{fill:#6D83E6;}
	.st4{fill:#6E77E4;}
	.st5{fill:#7097E6;}
</style>
<path class="st0" d="M23.1,1358.6c-13.8-8-22.2-22.8-22.1-38.8l4.6-876.7l778.3,455.3l-4.7,901.7L23.1,1358.6z"/>
<path class="st1" d="M1538.9,1366.5c13.9-7.9,22.4-22.6,22.5-38.5l4.6-876.7L782.9,898.4l-4.7,901.7L1538.9,1366.5z"/>
<path class="st2" d="M4.6,444.1L765.1,6c13.9-8,31.1-7.9,45,0.2L1566,452.3L782.9,899.4L4.6,444.1z"/>
<g>
	<path class="st3" d="M107.1,1024.1V766.2l223.1,129v257.7L107.1,1024.1z"/>
	<path class="st4" d="M553.4,1024.1V766.2l-223.1,129v257.7L553.4,1024.1z"/>
	<path class="st5" d="M107.1,766.2l223.1-130.1l223.1,130.1l-223.1,129L107.1,766.2z"/>
	<path class="st3" d="M330.6,1413.9l1.4-257.9l222.5,130.1l-1.3,257.7L330.6,1413.9z"/>
	<path class="st4" d="M776.8,1416.2l1.4-257.9l-223.8,127.8l-1.3,257.7L776.8,1416.2z"/>
	<path class="st5" d="M331.9,1155.9L555.7,1027l222.5,131.3l-223.8,127.8L331.9,1155.9z"/>
	<path class="st3" d="M332.4,632.9l1.4-257.9l222.5,130.1l-1.3,257.7L332.4,632.9z"/>
	<path class="st4" d="M778.7,635.3l1.4-257.9L556.2,505.1l-1.3,257.7L778.7,635.3z"/>
	<path class="st5" d="M333.8,375l223.8-128.9l222.5,131.3L556.3,505.1L333.8,375z"/>
	<path class="st3" d="M783,1416.3l1.4-257.9l222.5,130.1l-1.3,257.7L783,1416.3z"/>
	<path class="st4" d="M1229.3,1418.6l1.4-257.9l-223.8,127.8l-1.3,257.7L1229.3,1418.6z"/>
	<path class="st5" d="M784.3,1158.4l223.8-128.9l222.5,131.3l-223.8,127.8L784.3,1158.4z"/>
	<path class="st3" d="M785.4,635.4l0.4-257.9l222.9,129.3l-0.4,257.7L785.4,635.4z"/>
	<path class="st4" d="M1231.6,635.1l0.4-257.9l-223.3,128.6l-0.4,257.7L1231.6,635.1z"/>
	<path class="st5" d="M785.8,377.5l223.3-129.8L1232,378.2l-223.3,128.6L785.8,377.5z"/>
</g>
</svg>
