<svg width="120" height="149" viewBox="0 0 120 149" fill="none" xmlns="http://www.w3.org/2000/svg">
<mask id="path-1-outside-1_1461_535" maskUnits="userSpaceOnUse" x="0" y="0" width="120" height="149" fill="black">
<rect fill="white" width="120" height="149"/>
<path d="M117.666 16.8441C117.55 16.7712 94.6983 2.28567 94.6983 2.28567C94.4616 2.13483 94.167 2.13483 93.928 2.28567L71.487 16.4343L49.0854 2.11472C48.8488 1.96388 48.5541 1.96136 48.3152 2.10969C48.3152 2.10969 25.4449 16.3388 25.3336 16.4067C25.0969 16.5525 24.9415 16.7586 24.9392 17.0527L24.8023 45.169L2.63501 59.1744C2.55382 59.192 2.12462 59.4434 2.0643 59.5339C1.95527 59.7878 2.01791 60.4716 2.01791 60.4716V88.6557C2.01791 88.9524 2.16406 89.2239 2.4007 89.3722L24.7953 103.373C24.8046 103.393 24.8209 103.408 24.8325 103.428L24.6956 131.328C24.6956 131.625 24.8394 131.899 25.0737 132.047L47.4823 146.238C47.5101 146.278 47.8488 146.527 48.1945 146.512C48.568 146.497 48.9137 146.185 48.9833 146.13L70.849 132.628L93.3666 146.887C93.4849 146.962 93.6195 147 93.7517 147C93.8839 147 94.0417 146.937 94.1299 146.892C100.069 143.767 117.051 132.678 117.051 132.678C117.288 132.532 117.436 132.258 117.436 131.964L117.575 103.45C117.592 103.184 117.452 102.742 117.218 102.591L94.3851 87.9971C94.1484 87.8462 93.8538 87.8437 93.6172 87.992L71.1576 102.007L49.1109 87.9166V60.7205L71.4406 46.9389L93.7146 60.9341C93.7633 60.9894 93.819 61.0372 93.8793 61.0749C93.9976 61.1503 94.1299 61.1855 94.2621 61.1855C94.3943 61.1855 94.5243 61.1478 94.6426 61.0749L117.564 46.7855C117.8 46.6372 117.947 46.3657 117.947 46.069L118 17.3946C118 17.098 117.903 16.9824 117.666 16.834V16.8441ZM115.912 131.481L94.5219 144.672L94.6519 117.991L99.4519 115.02L116.042 104.773L115.91 131.479L115.912 131.481ZM93.993 89.6714L115.311 103.297L98.6538 113.609L93.8839 116.556L72.5727 103.041L93.9953 89.6714H93.993ZM71.8999 104.547L93.1253 118.006L92.9931 144.74L71.7677 131.298L71.8999 104.547ZM70.6634 45.5185L49.1689 58.7847L49.2292 46.4059L49.2988 32.119L70.7121 18.8804L70.6634 45.5185ZM48.6933 3.784L69.9071 17.3419L48.5147 30.5628L27.3195 17.1231L48.6933 3.784ZM47.7723 32.0662L47.6772 51.4213L47.6424 58.6188L26.3312 45.1539L26.4611 18.5712L47.7723 32.0687V32.0662ZM24.6956 101.402L3.54676 88.1806V61.5878L24.6956 74.844V101.402ZM4.35179 60.009L25.4983 46.6472L46.6865 60.0668L25.5656 73.2903L4.35179 60.0115V60.009ZM47.582 61.6104V87.9845L26.4332 101.183V74.8691L47.582 61.6129V61.6104ZM47.3269 144.225L26.2268 130.86L26.3567 104.295L47.4568 117.677L47.3269 144.225ZM70.1553 131.154L49.0645 144.179L49.1944 117.619L70.2852 104.562L70.1553 131.154ZM69.6217 102.955L48.3337 116.118L27.2916 102.774L48.5495 89.4853L69.6217 102.955ZM93.5012 58.8928L72.1946 45.5059L72.3245 18.9709L93.5499 32.305L93.5012 58.8928ZM94.3155 30.7539L73.039 17.3695L94.3131 3.95746L115.613 17.4625L94.3155 30.7564V30.7539ZM116.42 45.5964L95.0277 58.933L95.0741 33.7581V32.2623L116.471 18.898L116.422 45.5964H116.42Z"/>
</mask>
<path d="M117.666 16.8441C117.55 16.7712 94.6983 2.28567 94.6983 2.28567C94.4616 2.13483 94.167 2.13483 93.928 2.28567L71.487 16.4343L49.0854 2.11472C48.8488 1.96388 48.5541 1.96136 48.3152 2.10969C48.3152 2.10969 25.4449 16.3388 25.3336 16.4067C25.0969 16.5525 24.9415 16.7586 24.9392 17.0527L24.8023 45.169L2.63501 59.1744C2.55382 59.192 2.12462 59.4434 2.0643 59.5339C1.95527 59.7878 2.01791 60.4716 2.01791 60.4716V88.6557C2.01791 88.9524 2.16406 89.2239 2.4007 89.3722L24.7953 103.373C24.8046 103.393 24.8209 103.408 24.8325 103.428L24.6956 131.328C24.6956 131.625 24.8394 131.899 25.0737 132.047L47.4823 146.238C47.5101 146.278 47.8488 146.527 48.1945 146.512C48.568 146.497 48.9137 146.185 48.9833 146.13L70.849 132.628L93.3666 146.887C93.4849 146.962 93.6195 147 93.7517 147C93.8839 147 94.0417 146.937 94.1299 146.892C100.069 143.767 117.051 132.678 117.051 132.678C117.288 132.532 117.436 132.258 117.436 131.964L117.575 103.45C117.592 103.184 117.452 102.742 117.218 102.591L94.3851 87.9971C94.1484 87.8462 93.8538 87.8437 93.6172 87.992L71.1576 102.007L49.1109 87.9166V60.7205L71.4406 46.9389L93.7146 60.9341C93.7633 60.9894 93.819 61.0372 93.8793 61.0749C93.9976 61.1503 94.1299 61.1855 94.2621 61.1855C94.3943 61.1855 94.5243 61.1478 94.6426 61.0749L117.564 46.7855C117.8 46.6372 117.947 46.3657 117.947 46.069L118 17.3946C118 17.098 117.903 16.9824 117.666 16.834V16.8441ZM115.912 131.481L94.5219 144.672L94.6519 117.991L99.4519 115.02L116.042 104.773L115.91 131.479L115.912 131.481ZM93.993 89.6714L115.311 103.297L98.6538 113.609L93.8839 116.556L72.5727 103.041L93.9953 89.6714H93.993ZM71.8999 104.547L93.1253 118.006L92.9931 144.74L71.7677 131.298L71.8999 104.547ZM70.6634 45.5185L49.1689 58.7847L49.2292 46.4059L49.2988 32.119L70.7121 18.8804L70.6634 45.5185ZM48.6933 3.784L69.9071 17.3419L48.5147 30.5628L27.3195 17.1231L48.6933 3.784ZM47.7723 32.0662L47.6772 51.4213L47.6424 58.6188L26.3312 45.1539L26.4611 18.5712L47.7723 32.0687V32.0662ZM24.6956 101.402L3.54676 88.1806V61.5878L24.6956 74.844V101.402ZM4.35179 60.009L25.4983 46.6472L46.6865 60.0668L25.5656 73.2903L4.35179 60.0115V60.009ZM47.582 61.6104V87.9845L26.4332 101.183V74.8691L47.582 61.6129V61.6104ZM47.3269 144.225L26.2268 130.86L26.3567 104.295L47.4568 117.677L47.3269 144.225ZM70.1553 131.154L49.0645 144.179L49.1944 117.619L70.2852 104.562L70.1553 131.154ZM69.6217 102.955L48.3337 116.118L27.2916 102.774L48.5495 89.4853L69.6217 102.955ZM93.5012 58.8928L72.1946 45.5059L72.3245 18.9709L93.5499 32.305L93.5012 58.8928ZM94.3155 30.7539L73.039 17.3695L94.3131 3.95746L115.613 17.4625L94.3155 30.7564V30.7539ZM116.42 45.5964L95.0277 58.933L95.0741 33.7581V32.2623L116.471 18.898L116.422 45.5964H116.42Z" fill="white"/>
<path d="M117.666 16.8441C117.55 16.7712 94.6983 2.28567 94.6983 2.28567C94.4616 2.13483 94.167 2.13483 93.928 2.28567L71.487 16.4343L49.0854 2.11472C48.8488 1.96388 48.5541 1.96136 48.3152 2.10969C48.3152 2.10969 25.4449 16.3388 25.3336 16.4067C25.0969 16.5525 24.9415 16.7586 24.9392 17.0527L24.8023 45.169L2.63501 59.1744C2.55382 59.192 2.12462 59.4434 2.0643 59.5339C1.95527 59.7878 2.01791 60.4716 2.01791 60.4716V88.6557C2.01791 88.9524 2.16406 89.2239 2.4007 89.3722L24.7953 103.373C24.8046 103.393 24.8209 103.408 24.8325 103.428L24.6956 131.328C24.6956 131.625 24.8394 131.899 25.0737 132.047L47.4823 146.238C47.5101 146.278 47.8488 146.527 48.1945 146.512C48.568 146.497 48.9137 146.185 48.9833 146.13L70.849 132.628L93.3666 146.887C93.4849 146.962 93.6195 147 93.7517 147C93.8839 147 94.0417 146.937 94.1299 146.892C100.069 143.767 117.051 132.678 117.051 132.678C117.288 132.532 117.436 132.258 117.436 131.964L117.575 103.45C117.592 103.184 117.452 102.742 117.218 102.591L94.3851 87.9971C94.1484 87.8462 93.8538 87.8437 93.6172 87.992L71.1576 102.007L49.1109 87.9166V60.7205L71.4406 46.9389L93.7146 60.9341C93.7633 60.9894 93.819 61.0372 93.8793 61.0749C93.9976 61.1503 94.1299 61.1855 94.2621 61.1855C94.3943 61.1855 94.5243 61.1478 94.6426 61.0749L117.564 46.7855C117.8 46.6372 117.947 46.3657 117.947 46.069L118 17.3946C118 17.098 117.903 16.9824 117.666 16.834V16.8441ZM115.912 131.481L94.5219 144.672L94.6519 117.991L99.4519 115.02L116.042 104.773L115.91 131.479L115.912 131.481ZM93.993 89.6714L115.311 103.297L98.6538 113.609L93.8839 116.556L72.5727 103.041L93.9953 89.6714H93.993ZM71.8999 104.547L93.1253 118.006L92.9931 144.74L71.7677 131.298L71.8999 104.547ZM70.6634 45.5185L49.1689 58.7847L49.2292 46.4059L49.2988 32.119L70.7121 18.8804L70.6634 45.5185ZM48.6933 3.784L69.9071 17.3419L48.5147 30.5628L27.3195 17.1231L48.6933 3.784ZM47.7723 32.0662L47.6772 51.4213L47.6424 58.6188L26.3312 45.1539L26.4611 18.5712L47.7723 32.0687V32.0662ZM24.6956 101.402L3.54676 88.1806V61.5878L24.6956 74.844V101.402ZM4.35179 60.009L25.4983 46.6472L46.6865 60.0668L25.5656 73.2903L4.35179 60.0115V60.009ZM47.582 61.6104V87.9845L26.4332 101.183V74.8691L47.582 61.6129V61.6104ZM47.3269 144.225L26.2268 130.86L26.3567 104.295L47.4568 117.677L47.3269 144.225ZM70.1553 131.154L49.0645 144.179L49.1944 117.619L70.2852 104.562L70.1553 131.154ZM69.6217 102.955L48.3337 116.118L27.2916 102.774L48.5495 89.4853L69.6217 102.955ZM93.5012 58.8928L72.1946 45.5059L72.3245 18.9709L93.5499 32.305L93.5012 58.8928ZM94.3155 30.7539L73.039 17.3695L94.3131 3.95746L115.613 17.4625L94.3155 30.7564V30.7539ZM116.42 45.5964L95.0277 58.933L95.0741 33.7581V32.2623L116.471 18.898L116.422 45.5964H116.42Z" stroke="white" stroke-width="3" mask="url(#path-1-outside-1_1461_535)"/>
</svg>
