<svg width="116" height="145" viewBox="0 0 116 145" fill="none" xmlns="http://www.w3.org/2000/svg">
<path d="M0.783508 86.6583V57.9839L23.67 72.311V100.965L0.783508 86.6557V86.6583Z" fill="black"/>
<path d="M46.3453 86.6583V57.9839L23.4589 72.311V100.965L46.3453 86.6557V86.6583Z" fill="black"/>
<path d="M0.695312 58.0971L23.5818 43.6367L46.4683 58.0971L23.5818 72.4443L0.695312 58.0971Z" fill="black"/>
<path d="M23.4589 129.336L23.6004 100.661L46.4358 115.142L46.2943 143.796L23.4589 129.336Z" fill="black"/>
<path d="M69.0045 129.582L69.146 100.965L46.2247 115.139L46.0832 143.736L69.0045 129.579V129.582Z" fill="black"/>
<path d="M23.4403 100.757L46.3987 86.4294L69.2341 101.023L46.2757 115.237L23.4403 100.757Z" fill="black"/>
<path d="M23.5656 43.7322L23.7071 15.0579L46.5425 29.5383L46.401 58.1926L23.5656 43.7322Z" fill="black"/>
<path d="M69.4267 43.9986L69.5682 15.2664L46.5402 29.498L46.3987 58.21L69.4267 43.996V43.9986Z" fill="black"/>
<path d="M23.7396 15.1533L46.698 0.826172L69.5334 15.4198L46.575 29.6137L23.7396 15.1533Z" fill="black"/>
<path d="M68.9163 129.715L69.0578 101.041L91.8932 115.521L91.7517 144.176L68.9163 129.715Z" fill="black"/>
<path d="M114.673 129.964L114.815 101.347L91.8932 115.504L91.7517 144.1L114.673 129.964Z" fill="black"/>
<path d="M69.0392 101.043L91.9976 86.7161L114.833 101.31L91.8747 115.524L69.0392 101.043Z" fill="black"/>
<path d="M69.4267 43.9811L69.4801 15.3445L92.3155 29.7093L92.2621 58.3259L69.4267 43.9786V43.9811Z" fill="black"/>
<path d="M115.183 44.0765L115.237 15.4021L92.3154 29.7116L92.2621 58.3659L115.183 44.0765Z" fill="black"/>
<path d="M69.4081 15.4398L92.3131 0.99707L115.183 15.4951L92.2783 29.8047L69.4081 15.4398Z" fill="black"/>
<path d="M115.666 14.8441C115.55 14.7712 92.6982 0.285671 92.6982 0.285671C92.4616 0.134832 92.167 0.134832 91.928 0.285671L69.487 14.4343L47.0854 0.114718C46.8488 -0.03612 46.5541 -0.038635 46.3152 0.109689C46.3152 0.109689 23.4449 14.3388 23.3336 14.4067C23.0969 14.5525 22.9415 14.7586 22.9392 15.0527L22.8023 43.169L0.635014 57.1744C0.553816 57.192 0.124624 57.4434 0.0643047 57.5339C-0.0447338 57.7878 0.017906 58.4716 0.017906 58.4716V86.6557C0.017906 86.9524 0.164063 87.2239 0.400699 87.3722L22.7953 101.373C22.8046 101.393 22.8209 101.408 22.8325 101.428L22.6956 129.328C22.6956 129.625 22.8394 129.899 23.0737 130.047L45.4823 144.238C45.5101 144.278 45.8488 144.527 46.1945 144.512C46.568 144.497 46.9137 144.185 46.9833 144.13L68.849 130.628L91.3666 144.887C91.4849 144.962 91.6195 145 91.7517 145C91.8839 145 92.0417 144.937 92.1299 144.892C98.069 141.767 115.051 130.678 115.051 130.678C115.288 130.532 115.436 130.258 115.436 129.964L115.575 101.45C115.592 101.184 115.452 100.742 115.218 100.591L92.3851 85.9971C92.1484 85.8462 91.8538 85.8437 91.6172 85.992L69.1576 100.007L47.1109 85.9166V58.7205L69.4406 44.9389L91.7146 58.9341C91.7633 58.9894 91.819 59.0372 91.8793 59.0749C91.9976 59.1503 92.1299 59.1855 92.2621 59.1855C92.3943 59.1855 92.5243 59.1478 92.6426 59.0749L115.564 44.7855C115.8 44.6372 115.947 44.3657 115.947 44.069L116 15.3946C116 15.098 115.903 14.9824 115.666 14.834V14.8441ZM113.912 129.481L92.5219 142.672L92.6518 115.991L97.4519 113.02L114.042 102.773L113.91 129.479L113.912 129.481ZM91.993 87.6714L113.311 101.297L96.6538 111.609L91.8839 114.556L70.5727 101.041L91.9953 87.6714H91.993ZM69.8999 102.547L91.1253 116.006L90.9931 142.74L69.7677 129.298L69.8999 102.547ZM68.6634 43.5185L47.1689 56.7847L47.2292 44.4059L47.2988 30.119L68.7121 16.8804L68.6634 43.5185ZM46.6933 1.784L67.9071 15.3419L46.5147 28.5628L25.3195 15.1231L46.6933 1.784ZM45.7723 30.0662L45.6772 49.4213L45.6424 56.6188L24.3312 43.1539L24.4611 16.5712L45.7723 30.0687V30.0662ZM22.6956 99.4016L1.54676 86.1806V59.5878L22.6956 72.8439V99.4016ZM2.35179 58.009L23.4983 44.6472L44.6865 58.0668L23.5656 71.2903L2.35179 58.0115V58.009ZM45.5821 59.6104V85.9845L24.4332 99.1828V72.8691L45.5821 59.6129V59.6104ZM45.3269 142.225L24.2268 128.86L24.3567 102.295L45.4568 115.677L45.3269 142.225ZM68.1553 129.154L47.0645 142.179L47.1944 115.619L68.2852 102.562L68.1553 129.154ZM67.6217 100.955L46.3337 114.118L25.2916 100.774L46.5495 87.4853L67.6217 100.955ZM91.5012 56.8928L70.1946 43.5059L70.3245 16.9709L91.5499 30.305L91.5012 56.8928ZM92.3155 28.7539L71.039 15.3695L92.3131 1.95746L113.613 15.4625L92.3155 28.7564V28.7539ZM114.42 43.5964L93.0277 56.933L93.0741 31.7581V30.2623L114.471 16.898L114.422 43.5964H114.42Z" fill="#22C55E"/>
</svg>
