<svg width="64" height="92" viewBox="0 0 64 92" fill="none" xmlns="http://www.w3.org/2000/svg">
<path d="M37.6446 11.0634C37.6378 10.6604 37.7134 10.2622 37.8637 9.90929C38.014 9.55633 38.2337 9.26113 38.5005 9.05364L48.3935 1.3303C48.66 1.12195 48.9641 1.00818 49.2754 1.00042C49.5866 0.992671 49.8939 1.09121 50.1665 1.28613L60.322 8.52579C60.5952 8.71975 60.8242 9.00357 60.9858 9.34865C61.1474 9.69372 61.236 10.0879 61.2426 10.4914L61.4983 25.45C61.5055 25.8526 61.4304 26.2505 61.2807 26.6034C61.131 26.9563 60.912 27.2517 60.6459 27.4598L50.7512 35.1831C50.4847 35.3915 50.1805 35.5052 49.8693 35.513C49.558 35.5208 49.2507 35.4222 48.9782 35.2273L38.8227 27.9876C38.5501 27.7931 38.3218 27.509 38.1608 27.164C37.9998 26.819 37.9117 26.4251 37.9055 26.022L37.6446 11.0634Z" fill="#FFD6F5" stroke="black" stroke-width="2"/>
<path d="M37.8835 11.098L49.6927 18.1124M37.8835 11.1002L37.8034 11.0516M49.691 18.1124L49.7711 18.1566M49.7149 37V18.1301" stroke="black"/>
<path d="M49.8001 37.1171L49.6637 37.1104L49.6296 37.1038V37H49.8001V37.1171Z" fill="black" stroke="black" stroke-width="0.05"/>
<path d="M49.715 18.1322V18.0217M61.1286 10.5038L49.7201 18.1498" stroke="black"/>
<path d="M61.2052 10.4531L61.2444 10.5503L61.166 10.6033L61.0876 10.4045L61.1558 10.3604L61.2052 10.4531Z" fill="black" stroke="black" stroke-width="0.05"/>
<path d="M49.7234 18.1501L49.645 18.2023" stroke="black"/>
<path d="M12.6725 12.3367C12.6657 11.9337 12.7413 11.5356 12.8916 11.1826C13.0419 10.8296 13.2616 10.5344 13.5284 10.3269L23.4213 2.60581C23.6879 2.39746 23.992 2.28369 24.3033 2.27594C24.6145 2.26818 24.9218 2.36672 25.1943 2.56164L35.3499 9.80131C35.6231 9.99527 35.8521 10.2791 36.0137 10.6242C36.1753 10.9692 36.2639 11.3634 36.2705 11.7669L36.5262 26.7255C36.5334 27.1281 36.4583 27.526 36.3086 27.8789C36.1589 28.2318 35.9399 28.5273 35.6738 28.7353L25.7791 36.4586C25.5126 36.667 25.2084 36.7808 24.8972 36.7885C24.5859 36.7963 24.2786 36.6977 24.0061 36.5028L13.8506 29.2631C13.578 29.0686 13.3497 28.7846 13.1887 28.4395C13.0277 28.0945 12.9396 27.7006 12.9334 27.2975L12.6725 12.3367Z" fill="#FF8F8F" stroke="black" stroke-width="2"/>
<path d="M1.21196 38.8846C1.21117 38.482 1.29252 38.0853 1.44777 37.7346C1.60301 37.384 1.82665 37.0919 2.09605 36.8879L12.1117 29.314C12.3815 29.1096 12.6875 29.0005 12.9988 28.9974C13.3101 28.9943 13.6158 29.0974 13.8852 29.2964L23.925 36.6877C24.1952 36.8857 24.4196 37.1729 24.5757 37.5204C24.7319 37.8678 24.8142 38.2633 24.8144 38.6669L24.8335 53.6297C24.8337 54.0316 24.7521 54.4274 24.5969 54.7772C24.4417 55.127 24.2183 55.4184 23.9495 55.6221L13.9355 63.196C13.6657 63.4003 13.3598 63.5095 13.0484 63.5126C12.7371 63.5157 12.4314 63.4125 12.162 63.2135L2.12041 55.8267C1.85028 55.6287 1.62584 55.3414 1.4697 54.994C1.31356 54.6465 1.23124 54.2511 1.23101 53.8475L1.21196 38.8846Z" fill="#FFF7A1" stroke="black" stroke-width="2"/>
<path d="M13.3203 66.5455C13.3135 66.1425 13.3891 65.7443 13.5394 65.3913C13.6897 65.0384 13.9093 64.7432 14.1761 64.5357L24.0691 56.8124C24.3356 56.604 24.6398 56.4902 24.951 56.4825C25.2623 56.4747 25.5696 56.5733 25.8421 56.7682L35.9976 64.0123C36.2704 64.2059 36.499 64.489 36.6606 64.8332C36.8222 65.1774 36.911 65.5707 36.9182 65.9735L37.174 80.9365C37.1811 81.3391 37.1061 81.7369 36.9564 82.0899C36.8067 82.4428 36.5877 82.7382 36.3216 82.9463L26.4269 90.6674C26.1606 90.8764 25.8566 90.991 25.5454 90.9995C25.2342 91.008 24.9267 90.9102 24.6539 90.716L14.4983 83.4719C14.2262 83.2777 13.9983 82.9944 13.8373 82.6502C13.6763 82.306 13.588 81.913 13.5811 81.5107L13.3203 66.5455Z" fill="#6DB1FF" stroke="black" stroke-width="2"/>
<path d="M39.0333 65.9213C39.0261 65.5188 39.1012 65.1209 39.2509 64.768C39.4006 64.415 39.6196 64.1196 39.8857 63.9116L49.7804 56.1882C50.0469 55.9799 50.3511 55.8661 50.6623 55.8583C50.9736 55.8506 51.2809 55.9491 51.5534 56.144L61.7089 63.3881C61.9817 63.5817 62.2103 63.8648 62.3719 64.2091C62.5335 64.5533 62.6223 64.9465 62.6295 65.3493L62.8853 80.3123C62.8924 80.7149 62.8174 81.1128 62.6677 81.4657C62.518 81.8186 62.299 82.1141 62.0329 82.3221L52.1399 90.0388C51.8736 90.2479 51.5696 90.3624 51.2584 90.3709C50.9472 90.3795 50.6397 90.2817 50.3669 90.0874L40.2096 82.8433C39.9369 82.6498 39.7082 82.3666 39.5467 82.0224C39.3851 81.6782 39.2962 81.2849 39.289 80.8821L39.0333 65.9213Z" fill="#C3F7C8" stroke="black" stroke-width="2"/>
<path d="M14.6982 64.0285L26.6778 71.0451M14.6982 64.033L14.618 63.9844M26.6761 71.0429L26.7563 71.0871M26.7 89.935V71.0606" stroke="black"/>
<path d="M26.7852 90.0498L26.6488 90.0432L26.6147 90.0366V89.9305H26.7852V90.0498Z" fill="black" stroke="black" stroke-width="0.05"/>
<path d="M26.7001 71.0628V70.9524M38.395 63.7194L26.7069 71.0849" stroke="black"/>
<path d="M38.4289 63.8184L38.3744 63.6683H38.4716L38.683 63.6462L38.7205 63.6351L38.4289 63.8184Z" fill="black" stroke="black" stroke-width="0.05"/>
<path d="M26.7085 71.0827L26.6301 71.1335M37.9858 64.0285L49.9672 71.0451M37.9858 64.033L37.9074 63.9844M49.9655 71.0429L50.0456 71.0871M49.9877 89.935V71.0606" stroke="black"/>
<path d="M50.0729 90.0498L49.9366 90.0432L49.9025 90.0366V89.9305H50.0729V90.0498Z" fill="black" stroke="black" stroke-width="0.05"/>
<path d="M49.9876 71.0626V70.9521M49.9962 71.0847L61.6826 63.7191L61.761 63.6705M49.9979 71.0825L49.9194 71.1333M2.47467 37.7994L14.2208 45.5184" stroke="black"/>
<path d="M2.5172 37.7024L2.44049 37.9012L2.36377 37.8504L2.40128 37.751L2.4456 37.656L2.5172 37.7024Z" fill="black" stroke="black" stroke-width="0.05"/>
<path d="M14.2175 45.5162L14.2959 45.567M14.2175 11.098L26.0318 18.1124M14.2209 11.1002L14.1407 11.0516M26.0284 18.1124L26.1068 18.1566M26.0522 37V18.1301" stroke="black"/>
<path d="M26.1373 37.1171L26.001 37.1104L25.9669 37.1038V37H26.1373V37.1171Z" fill="black" stroke="black" stroke-width="0.05"/>
<path d="M26.0522 18.1323V18.0219M37.4642 10.5017L26.059 18.15" stroke="black"/>
<path d="M37.5426 10.4531L37.5801 10.5503L37.5017 10.6033L37.4233 10.4045L37.4915 10.3604L37.5426 10.4531Z" fill="black" stroke="black" stroke-width="0.05"/>
<path d="M26.059 18.1501L25.9806 18.2009M14.3163 45.7373V64.6072V64.7177M14.3163 45.7395V45.6291" stroke="black"/>
<path d="M49.3961 36.7196L49.437 36.8168L49.3689 36.8742L49.2768 36.6887L49.345 36.629L49.3961 36.7196Z" fill="white" stroke="white" stroke-width="0.05"/>
<path d="M25.9617 37.8391L25.8867 38.0379L25.81 37.9937L25.8441 37.8899L25.8901 37.7949L25.9617 37.8391Z" fill="white" stroke="white" stroke-width="0.05"/>
<path d="M38.2927 45.6754L38.3711 45.7253" stroke="white"/>
<path d="M25.7709 37.943L14.3538 45.6442" stroke="black"/>
<path d="M25.8476 37.8902L25.7999 38.0227L25.7317 37.846L25.9294 37.7135L25.8476 37.8902Z" fill="black" stroke="black" stroke-width="0.05"/>
<path d="M14.3571 45.642L14.2787 45.6964" stroke="black"/>
<path d="M26.0417 38.9299C26.0382 38.527 26.1171 38.1287 26.2703 37.7753C26.4235 37.4219 26.6456 37.1259 26.914 36.9175L36.8778 29.1757C37.1464 28.9666 37.4519 28.8521 37.7634 28.8438C38.075 28.8354 38.3816 28.9335 38.6525 29.1281L48.7436 36.3409C49.0149 36.5347 49.241 36.8183 49.3991 37.1632C49.5572 37.5082 49.6417 37.9022 49.6442 38.3056L49.7664 53.2646C49.7692 53.6667 49.6901 54.0641 49.5369 54.4166C49.3838 54.7692 49.1621 55.0644 48.8941 55.2725L38.9302 63.0188C38.6616 63.2279 38.3561 63.3423 38.0446 63.3507C37.7331 63.359 37.4264 63.261 37.1556 63.0664L27.0644 55.8536C26.7931 55.6598 26.5671 55.3761 26.409 55.0312C26.2509 54.6863 26.1663 54.2922 26.1638 53.8888L26.0417 38.9299Z" fill="black" stroke="white"/>
<path d="M49.5451 37.044L38.392 45.7305" stroke="white"/>
<path d="M38.3937 45.7303L38.3189 45.7883M26.1233 37.6655L38.3026 45.6885" stroke="white"/>
<path d="M38.3897 45.6134C38.401 45.6137 38.4117 45.6197 38.4195 45.6303C38.4272 45.6408 38.4313 45.6549 38.431 45.6696L38.0087 63.1124C38.0084 63.127 38.0036 63.1409 37.9953 63.1511C37.9871 63.1613 37.9761 63.1668 37.9648 63.1666C37.9535 63.1663 37.9428 63.1603 37.9351 63.1497C37.9273 63.1392 37.9232 63.1251 37.9235 63.1104L38.3458 45.6676C38.3461 45.653 38.351 45.639 38.3592 45.6289C38.3674 45.6187 38.3784 45.6131 38.3897 45.6134Z" stroke="white" stroke-width="0.5"/>
</svg>
