<?xml version="1.0" encoding="utf-8"?>
<!-- Generator: Adobe Illustrator 27.0.0, SVG Export Plug-In . SVG Version: 6.00 Build 0)  -->
<svg version="1.1" id="Camada_1" xmlns="http://www.w3.org/2000/svg" xmlns:xlink="http://www.w3.org/1999/xlink" x="0px" y="0px"
	 viewBox="0 0 1566 1802" style="enable-background:new 0 0 1566 1802;" xml:space="preserve">
<style type="text/css">
	.st0{fill:#6D83E6;stroke:#2B2F4C;stroke-miterlimit:10;}
	.st1{fill:#6E77E4;stroke:#2B2F4C;stroke-miterlimit:10;}
	.st2{fill:#7097E6;stroke:#2B2F4C;stroke-miterlimit:10;}
	.st3{fill:#242743;stroke:#2B2F4C;stroke-miterlimit:10;}
	.st4{fill:#151826;stroke:#2B2F4C;stroke-miterlimit:10;}
	.st5{fill:#2B2F4C;stroke:#2B2F4C;stroke-miterlimit:10;}
</style>
<g>
	<path class="st0" d="M1.5,1080.6V719.2l312.6,180.7V1261L1.5,1080.6z"/>
	<path class="st1" d="M623.9,1080.6V719.2L311.3,899.9V1261L623.9,1080.6z"/>
	<path class="st2" d="M0.3,720.5L313,538.1l312.7,182.4L313,901.3L0.3,720.5z"/>
	<path class="st0" d="M311.3,1618.6l2-361.6l312,182.5l-1.8,361.4L311.3,1618.6z"/>
	<path class="st1" d="M933.7,1621.6l2-360.8l-313.1,178.7l-1.8,360.5L933.7,1621.6z"/>
	<path class="st2" d="M311.2,1258.3l313.7-180.7l311.9,184L623,1440.8L311.2,1258.3z"/>
	<path class="st0" d="M312.7,539.2l2-361.6l312,182.5l-1.8,361.4L312.7,539.2z"/>
	<path class="st1" d="M939.3,542.7l2-362.3L626.7,360L624.9,722L939.3,542.7z"/>
	<path class="st2" d="M315.2,179.1L628.9-1.5l311.9,184l-313.7,179L315.2,179.1z"/>
	<path class="st0" d="M932.3,1623.3l2-361.6l312,182.5l-1.8,361.4L932.3,1623.3z"/>
	<path class="st1" d="M1557.4,1626.4l2-360.8l-313.1,178.7l-1.8,360.5L1557.4,1626.4z"/>
	<path class="st2" d="M934.1,1261.8l313.7-180.7l311.9,184L1246,1444.3L934.1,1261.8z"/>
	<path class="st0" d="M939.3,542.6l0.6-361.1l312,181.1l-0.6,360.8L939.3,542.6z"/>
	<path class="st1" d="M1564.4,543.7l0.6-361.6l-313.1,180.4l-0.6,361.4L1564.4,543.7z"/>
	<path class="st2" d="M939,182.6L1252,0.7l312.4,182.9l-313,180.3L939,182.6z"/>
	<path class="st3" d="M623.9,1082.3l0.6-362.9l313.4,181.9l-0.6,362.6L623.9,1082.3z"/>
	<path class="st4" d="M1251.9,1083.4l0.6-363.6L937.9,901.2l-0.6,363.3L1251.9,1083.4z"/>
	<path class="st5" d="M624.3,720.8l314-182.6l313.4,183.6l-314,181L624.3,720.8z"/>
</g>
</svg>
