<svg width="41" height="41" viewBox="0 0 41 41" fill="none" xmlns="http://www.w3.org/2000/svg">
<path d="M34.7082 7.44784C32.095 6.2488 29.2927 5.36539 26.3628 4.85942C26.3095 4.84966 26.2561 4.87406 26.2287 4.92287C25.8683 5.56387 25.4691 6.40011 25.1895 7.05738C22.0382 6.58558 18.903 6.58558 15.8163 7.05738C15.5367 6.38546 15.123 5.56387 14.761 4.92287C14.7335 4.87569 14.6802 4.85129 14.6269 4.85942C11.6985 5.36376 8.89625 6.24718 6.28143 7.44784C6.25881 7.4576 6.23942 7.47387 6.22649 7.49502C0.911212 15.436 -0.544873 23.1817 0.169433 30.8315C0.172665 30.8689 0.193674 30.9047 0.222763 30.9274C3.72965 33.5028 7.12664 35.0663 10.4606 36.1026C10.5139 36.1189 10.5705 36.0994 10.6044 36.0555C11.3931 34.9785 12.0961 33.8429 12.6989 32.6487C12.7344 32.5788 12.7005 32.4958 12.6278 32.4681C11.5127 32.0451 10.4509 31.5294 9.42955 30.9437C9.34875 30.8965 9.34228 30.781 9.41662 30.7257C9.63156 30.5646 9.8465 30.3971 10.0517 30.2279C10.0889 30.197 10.1406 30.1904 10.1843 30.21C16.8942 33.2734 24.1585 33.2734 30.7892 30.21C30.8329 30.1888 30.8846 30.1953 30.9234 30.2262C31.1286 30.3954 31.3435 30.5646 31.5601 30.7257C31.6344 30.781 31.6296 30.8965 31.5488 30.9437C30.5274 31.5408 29.4657 32.0451 28.349 32.4665C28.2762 32.4942 28.2439 32.5788 28.2795 32.6487C28.8952 33.8412 29.5982 34.9768 30.3723 36.0538C30.4046 36.0994 30.4628 36.1189 30.5161 36.1026C33.8662 35.0663 37.2632 33.5028 40.7701 30.9274C40.8008 30.9047 40.8202 30.8705 40.8235 30.8331C41.6784 21.9892 39.3916 14.3069 34.7616 7.49665C34.7502 7.47387 34.7308 7.4576 34.7082 7.44784ZM13.7008 26.1736C11.6807 26.1736 10.0162 24.3189 10.0162 22.0412C10.0162 19.7636 11.6484 17.9089 13.7008 17.9089C15.7694 17.9089 17.4178 19.7798 17.3855 22.0412C17.3855 24.3189 15.7533 26.1736 13.7008 26.1736ZM27.3244 26.1736C25.3043 26.1736 23.6397 24.3189 23.6397 22.0412C23.6397 19.7636 25.272 17.9089 27.3244 17.9089C29.3929 17.9089 31.0413 19.7798 31.009 22.0412C31.009 24.3189 29.3929 26.1736 27.3244 26.1736Z" fill="#2E2F35"/>
</svg>
