<svg width="27" height="35" viewBox="0 0 27 35" fill="none" xmlns="http://www.w3.org/2000/svg">
<path fill-rule="evenodd" clip-rule="evenodd" d="M3.04688 0C1.36337 0 0 1.365 0 3.04688V31.0781C0 32.76 1.365 34.125 3.04688 34.125H23.7656C25.4475 34.125 26.8125 32.76 26.8125 31.0781V18.2812C26.8125 16.6651 26.1705 15.1151 25.0277 13.9723C23.8849 12.8295 22.3349 12.1875 20.7188 12.1875H17.6719C16.8638 12.1875 16.0888 11.8665 15.5174 11.2951C14.946 10.7237 14.625 9.94871 14.625 9.14062V6.09375C14.625 4.47759 13.983 2.92762 12.8402 1.78482C11.6974 0.642018 10.1474 0 8.53125 0H3.04688ZM6.09375 21.9375C6.09375 21.6143 6.22215 21.3043 6.45071 21.0757C6.67927 20.8472 6.98927 20.7188 7.3125 20.7188H19.5C19.8232 20.7188 20.1332 20.8472 20.3618 21.0757C20.5903 21.3043 20.7188 21.6143 20.7188 21.9375C20.7188 22.2607 20.5903 22.5707 20.3618 22.7993C20.1332 23.0278 19.8232 23.1562 19.5 23.1562H7.3125C6.98927 23.1562 6.67927 23.0278 6.45071 22.7993C6.22215 22.5707 6.09375 22.2607 6.09375 21.9375ZM7.3125 25.5938C6.98927 25.5938 6.67927 25.7222 6.45071 25.9507C6.22215 26.1793 6.09375 26.4893 6.09375 26.8125C6.09375 27.1357 6.22215 27.4457 6.45071 27.6743C6.67927 27.9028 6.98927 28.0312 7.3125 28.0312H13.4062C13.7295 28.0312 14.0395 27.9028 14.268 27.6743C14.4966 27.4457 14.625 27.1357 14.625 26.8125C14.625 26.4893 14.4966 26.1793 14.268 25.9507C14.0395 25.7222 13.7295 25.5938 13.4062 25.5938H7.3125Z" fill="#2E2F35"/>
<path d="M14.9841 0.51355C16.3272 2.06212 17.0654 4.04394 17.0625 6.0938V9.14067C17.0625 9.47705 17.3355 9.75005 17.6719 9.75005H20.7188C22.7686 9.7472 24.7504 10.4853 26.299 11.8284C25.5841 9.10933 24.1597 6.62891 22.1717 4.64087C20.1836 2.65282 17.7032 1.22849 14.9841 0.51355Z" fill="#2E2F35"/>
</svg>
