<svg width="275" height="151" viewBox="0 0 275 151" fill="none" xmlns="http://www.w3.org/2000/svg">
<path d="M181.987 36.1933C179.63 34.8822 178.214 33.3107 179.107 30.7308C179.619 29.255 180.935 28.83 182.418 28.9659C183.968 29.1073 184.962 29.9679 185.097 31.5054C185.183 32.4808 185.25 33.7282 184.739 34.4167C184.107 35.2667 182.864 35.6631 181.987 36.1933Z" fill="#2E2F35"/>
<path d="M241.961 36.255C238.648 33.47 237.994 31.5532 239.588 29.8585C240.727 28.6472 243.04 28.6196 244.217 29.8033C245.851 31.446 245.229 33.3819 241.961 36.255Z" fill="#2E2F35"/>
<path d="M33.1844 7.32104C29.8797 4.5651 29.2145 2.62889 30.8022 0.931859C31.9425 -0.287353 34.248 -0.314849 35.4293 0.876864C37.0703 2.5324 36.4469 4.48002 33.1844 7.32104Z" fill="#2E2F35"/>
<path d="M125.986 90.0806C125.913 91.7413 124.372 93.1024 122.565 93.1035C120.653 93.1046 118.899 91.3152 119.118 89.5876C119.338 87.8535 120.824 86.7379 122.801 86.825C124.544 86.9026 126.058 88.4485 125.986 90.0806Z" fill="#2E2F35"/>
<path d="M89.8952 3.27739C90.0068 1.37905 91.0598 0.0789011 92.5091 0.0524335C94.1092 0.0233839 96.2375 2.16297 96.1705 3.73445C96.1026 5.35523 93.8712 7.35215 92.3082 7.19234C90.7048 7.02891 89.7655 5.50517 89.8952 3.27739Z" fill="#2E2F35"/>
<path d="M118.913 3.15958C120.031 1.35929 121.012 -0.297737 123.282 0.166026C124.681 0.45241 126.041 2.78449 125.62 4.14118C125.17 5.58815 124.543 7.17313 122.698 7.17883C120.011 7.18765 119.94 4.72283 118.913 3.15958Z" fill="#2E2F35"/>
<path d="M155.229 3.67128C155.212 5.8514 154.036 7.33203 152.412 7.21634C151.004 7.11518 149.089 5.25574 148.953 3.85598C148.803 2.3068 150.842 0.109104 152.482 0.0515149C154.082 -0.00503296 155.245 1.52806 155.229 3.67128Z" fill="#2E2F35"/>
<path d="M185.188 3.75622C185.143 5.96792 183.946 7.39103 182.289 7.20529C180.839 7.04291 178.981 5.16273 178.896 3.7723C178.801 2.21229 180.907 0.048777 182.523 0.0451431C184.113 0.0415093 185.233 1.60107 185.188 3.75622Z" fill="#2E2F35"/>
<path d="M212.138 7.29403C208.717 4.66156 208.005 2.83177 209.528 1.03143C210.594 -0.230844 212.901 -0.356914 214.156 0.778315C215.881 2.33936 215.312 4.36325 212.138 7.29403Z" fill="#2E2F35"/>
<path d="M33.3163 36.2251C29.8859 33.5666 29.1782 31.7582 30.6948 29.9646C31.7547 28.7098 34.0722 28.5759 35.3256 29.6969C37.0537 31.2429 36.4929 33.2542 33.3163 36.2251Z" fill="#2E2F35"/>
<path d="M271.122 0.0815295C272.687 -0.0891555 274.914 1.89063 274.994 3.52437C275.061 4.84689 273.327 6.86449 271.856 7.17786C270.223 7.52508 268.861 6.14854 268.719 4.00324C268.57 1.7848 269.506 0.257931 271.122 0.0815295Z" fill="#2E2F35"/>
<path d="M3.33147 36.2262C-0.0557997 33.5411 -0.757812 31.7008 0.762308 29.9391C1.83476 28.696 4.14867 28.5886 5.39026 29.7245C7.11168 31.2991 6.53982 33.2893 3.33147 36.2262Z" fill="#2E2F35"/>
<path d="M63.4489 36.0879C61.0571 35.6098 59.6121 34.5377 59.9308 31.9101C60.1487 30.1165 61.0125 29.1475 62.8507 28.9509C64.6219 28.7618 65.252 29.9306 65.8343 31.2099C67.0381 33.8598 64.9896 34.8458 63.4489 36.0879Z" fill="#2E2F35"/>
<path d="M211.826 36.2346C208.623 33.2871 208.051 31.3045 209.76 29.7277C210.998 28.5865 213.309 28.6907 214.388 29.936C215.923 31.7093 215.23 33.539 211.826 36.2346Z" fill="#2E2F35"/>
<path d="M3.04866 7.36039C1.41861 5.95182 -0.829995 5.05116 0.432281 2.4576C1.08974 1.10765 2.25753 -0.305079 3.98162 0.186756C4.89369 0.447204 5.65622 1.60675 6.2321 2.5209C6.54034 3.01014 6.38353 3.84959 6.2954 4.51211C6.23256 4.98474 6.0594 5.59493 5.71705 5.84753C4.92677 6.43179 4.00385 6.83588 3.04866 7.36039Z" fill="#2E2F35"/>
<path d="M63.4765 7.13225C61.2388 6.73016 59.6674 5.83987 59.9203 3.1768C60.0627 1.67697 60.5907 0.55264 62.0942 0.132919C63.3905 -0.229213 65.5229 1.12438 66.0234 2.72336C66.7512 5.04816 64.9726 6.02614 63.4765 7.13225Z" fill="#2E2F35"/>
<path d="M242.378 7.23755C239.474 6.52205 238.352 5.14875 238.783 2.68697C239.048 1.1804 239.939 -0.168058 241.375 0.169168C242.667 0.47319 244.192 1.58138 244.768 2.75079C245.863 4.97968 243.654 5.92126 242.378 7.23755Z" fill="#2E2F35"/>
<path d="M151.694 36.1158C150.136 34.846 148.111 33.7675 149.275 31.5851C149.886 30.4408 151.426 29.3803 152.716 29.1201C154.179 28.8247 154.983 30.2262 155.219 31.7233C155.615 34.2287 154.378 35.5048 151.694 36.1158Z" fill="#2E2F35"/>
<path d="M119.001 148.072C119.68 145.847 120.657 143.913 122.761 144.297C124.102 144.542 125.18 146.228 126.322 147.222C123.045 152.045 122.635 152.076 119.001 148.072Z" fill="#2E2F35"/>
<path d="M93.5239 36.1666C90.5967 35.444 89.5012 34.0532 89.9166 31.6063C90.1738 30.0942 91.077 28.7619 92.5113 29.1039C93.7991 29.411 95.3121 30.5203 95.888 31.6891C96.9887 33.9204 94.7575 34.8479 93.5239 36.1666Z" fill="#2E2F35"/>
<path d="M126.018 119.214C124.92 121.144 123.445 122.743 121.156 121.802C120.205 121.411 119.216 119.72 119.256 118.656C119.306 117.298 120.067 115.828 122.085 115.698C124.761 115.525 125.637 117.023 126.018 119.214Z" fill="#2E2F35"/>
<path d="M66.238 61.1542C66.1763 63.0998 64.9534 64.2282 62.9728 64.1665C60.9965 64.106 59.8861 62.9128 59.9499 60.9184C60.0137 58.9453 61.1931 57.8615 63.2161 57.9124C65.2137 57.9624 66.3017 59.1291 66.238 61.1542Z" fill="#2E2F35"/>
<path d="M271.148 144.156C272.644 144.03 274.738 145.584 274.954 146.98C275.191 148.52 273.309 150.746 271.62 150.925C270.147 151.081 268.935 149.863 268.723 148.015C268.488 145.966 269.542 144.292 271.148 144.156Z" fill="#2E2F35"/>
<path d="M3.24785 144.656C5.20339 144.673 6.37416 145.888 6.33583 147.857C6.29789 149.824 5.10313 150.981 3.13644 150.954C1.16021 150.929 0.0218722 149.75 0.0446954 147.755C0.0675185 145.798 1.26501 144.639 3.24785 144.656Z" fill="#2E2F35"/>
<path d="M33.2067 144.655C35.1559 144.688 36.327 145.913 36.2875 147.875C36.2485 149.837 35.0476 150.988 33.0718 150.958C31.0983 150.926 29.9689 149.746 29.9932 147.739C30.0171 145.777 31.2218 144.621 33.2067 144.655Z" fill="#2E2F35"/>
<path d="M241.983 115.743C243.939 115.777 245.098 116.985 245.065 118.958C245.033 120.922 243.843 122.06 241.852 122.033C239.872 122.006 238.743 120.832 238.767 118.823C238.792 116.868 240 115.71 241.983 115.743Z" fill="#2E2F35"/>
<path d="M3.11968 57.9125C5.1177 57.8828 6.29839 59.0037 6.34048 60.9694C6.38302 62.9595 5.25304 64.1294 3.25976 64.1612C1.26596 64.1921 0.0743016 63.0594 0.0406512 61.1033C0.00640584 59.0951 1.11965 57.9422 3.11968 57.9125Z" fill="#2E2F35"/>
<path d="M275 32.5753C275.014 33.9481 273.073 35.7512 271.495 35.8308C270.161 35.8967 268.788 34.3943 268.718 32.792C268.622 30.5904 269.629 29.0828 271.25 28.9966C272.867 28.9106 274.983 30.9294 275 32.5753Z" fill="#2E2F35"/>
<path d="M36.2921 60.9342C36.3425 62.9329 35.2239 64.1177 33.2425 64.1622C31.2446 64.2069 30.0378 63.0827 29.9953 61.1362C29.9512 59.1247 31.0505 57.9624 33.0443 57.9124C35.0418 57.8614 36.2424 58.9792 36.2921 60.9342Z" fill="#2E2F35"/>
<path d="M212.215 144.655C214.119 144.785 215.246 146.108 215.113 148.056C214.983 149.968 213.67 151.09 211.719 150.96C209.829 150.834 208.694 149.501 208.814 147.555C208.931 145.673 210.279 144.523 212.215 144.655Z" fill="#2E2F35"/>
<path d="M241.965 144.654C243.914 144.69 245.09 145.907 245.065 147.863C245.041 149.832 243.85 150.984 241.866 150.96C239.902 150.938 238.756 149.749 238.767 147.75C238.78 145.786 239.985 144.619 241.965 144.654Z" fill="#2E2F35"/>
<path d="M212.201 115.743C214.105 115.86 215.241 117.177 215.118 119.124C214.997 121.033 213.696 122.154 211.737 122.035C209.842 121.919 208.7 120.6 208.815 118.657C208.926 116.766 210.253 115.624 212.201 115.743Z" fill="#2E2F35"/>
<path d="M6.34209 90.0498C6.2965 91.9996 5.09486 93.128 3.10625 93.0865C1.10889 93.0451 0.00595012 91.8891 0.0453806 89.8799C0.0842267 87.9131 1.26907 86.7985 3.27642 86.8388C5.26451 86.8792 6.38834 88.0555 6.34209 90.0498Z" fill="#2E2F35"/>
<path d="M185.171 118.94C185.135 120.908 183.942 122.059 181.969 122.031C179.987 122.004 178.846 120.826 178.873 118.837C178.898 116.883 180.108 115.713 182.078 115.738C184.034 115.763 185.207 116.977 185.171 118.94Z" fill="#2E2F35"/>
<path d="M118.964 31.9314C120.164 30.2049 121.171 28.3561 123.514 29.2167C125.111 29.8043 125.954 31.4459 125.576 32.9165C125.294 34.0066 123.966 35.423 122.919 35.6004C120.277 36.0466 119.718 33.7495 118.964 31.9314Z" fill="#2E2F35"/>
<path d="M66.2381 118.8C66.2837 120.799 65.1607 121.986 63.1833 122.03C61.2027 122.074 60.0074 120.946 59.948 118.977C59.8884 117.011 61.0423 115.787 62.9995 115.742C64.9727 115.696 66.1945 116.849 66.2381 118.8Z" fill="#2E2F35"/>
<path d="M36.2896 118.796C36.3317 120.798 35.2075 121.987 33.2338 122.03C31.2531 122.072 30.0473 120.939 29.9933 118.981C29.9389 117.01 31.0881 115.793 33.0486 115.745C35.0202 115.696 36.2491 116.853 36.2896 118.796Z" fill="#2E2F35"/>
<path d="M6.33949 118.796C6.37944 120.799 5.25634 121.987 3.28316 122.029C1.28586 122.071 0.0940137 120.95 0.0447229 118.984C-0.00456791 117.008 1.13846 115.797 3.09794 115.747C5.07728 115.697 6.3011 116.849 6.33949 118.796Z" fill="#2E2F35"/>
<path d="M245.067 89.7619C245.17 91.7605 244.083 92.9888 242.123 93.0865C240.138 93.1853 238.874 92.0845 238.768 90.1678C238.66 88.2074 239.781 86.9419 241.717 86.8378C243.698 86.7315 244.967 87.8397 245.067 89.7619Z" fill="#2E2F35"/>
<path d="M215.12 90.0613C215.073 92.0058 213.865 93.1321 211.873 93.0874C209.878 93.0428 208.772 91.8772 208.817 89.868C208.86 87.9193 210.068 86.7909 212.064 86.8366C214.048 86.8822 215.168 88.0638 215.12 90.0613Z" fill="#2E2F35"/>
<path d="M181.945 86.8376C183.941 86.8067 185.137 87.9394 185.17 89.8903C185.203 91.8942 184.089 93.0523 182.092 93.0874C180.09 93.1225 178.908 92.0025 178.871 90.0379C178.835 88.0362 179.957 86.8684 181.945 86.8376Z" fill="#2E2F35"/>
<path d="M215.12 61.1203C215.081 63.0626 213.869 64.2027 211.882 64.1634C209.892 64.124 208.771 62.9489 208.819 60.9513C208.866 58.9909 210.058 57.8688 212.053 57.9092C214.053 57.9486 215.16 59.1089 215.12 61.1203Z" fill="#2E2F35"/>
<path d="M63.1736 86.8397C65.1658 86.8748 66.2762 88.0362 66.238 90.0443C66.2007 92.0047 65.0117 93.1257 63.0121 93.0874C61.0167 93.0503 59.9095 91.8932 59.9446 89.8817C59.9786 87.9182 61.1601 86.8047 63.1736 86.8397Z" fill="#2E2F35"/>
<path d="M36.2932 89.8734C36.3388 91.8826 35.2296 93.0471 33.2343 93.0875C31.2332 93.1268 30.0373 92.0091 29.9938 90.0582C29.9486 88.0596 31.0657 86.8823 33.0507 86.8377C35.0419 86.7931 36.249 87.9236 36.2932 89.8734Z" fill="#2E2F35"/>
<path d="M269.249 63.8626C268.61 59.1609 269.2 57.9156 271.862 57.9177C273.411 57.9188 274.831 59.4595 274.974 61.2977C275.137 63.3855 273.581 64.1283 269.249 63.8626Z" fill="#2E2F35"/>
<path d="M245.066 60.7781C245.199 62.7502 244.1 64.0369 242.176 64.1644C240.2 64.294 238.891 63.1932 238.766 61.2977C238.639 59.3458 239.753 58.0442 241.664 57.9103C243.639 57.7722 244.938 58.8666 245.066 60.7781Z" fill="#2E2F35"/>
<path d="M185.174 61.2944C185.058 63.1858 183.746 64.2897 181.768 64.1644C179.845 64.0412 178.748 62.7607 178.874 60.7813C178.995 58.8666 180.286 57.7754 182.27 57.9114C184.176 58.0421 185.296 59.3458 185.174 61.2944Z" fill="#2E2F35"/>
<path d="M154.837 63.7117C150.55 64.1846 148.918 63.5215 148.938 61.49C148.957 59.5327 150.677 57.7509 152.391 57.9135C154.803 58.1419 155.228 59.0833 154.837 63.7117Z" fill="#2E2F35"/>
<path d="M119.001 60.8025C122.441 56.9487 122.684 56.9477 126.037 60.7261C125.54 62.271 125.399 63.988 123.074 64.2069C120.677 64.4311 119.69 63.1645 119.001 60.8025Z" fill="#2E2F35"/>
<path d="M269.296 115.916C270.472 115.849 271.334 115.649 272.138 115.785C273.765 116.058 275.258 117.99 274.759 119.354C274.332 120.518 273.96 121.967 272.165 122.044C270.246 122.125 268.902 121.212 268.767 119.206C268.695 118.126 269.104 117.014 269.296 115.916Z" fill="#2E2F35"/>
<path d="M96.093 148.052C95.1707 149.65 94.1699 151.269 91.8971 150.826C90.4796 150.549 88.9963 148.155 89.5817 146.878C89.9972 145.973 91.0183 145.006 91.9554 144.75C93.9732 144.198 94.4344 144.708 96.093 148.052Z" fill="#2E2F35"/>
<path d="M154.865 145.176C155.185 149.361 154.443 151.025 152.455 150.941C150.863 150.874 148.878 148.769 148.942 147.218C149.023 145.234 150.703 144.607 154.865 145.176Z" fill="#2E2F35"/>
<path d="M90.2757 63.7096C89.8687 59.0928 90.5179 57.8603 93.1338 57.9177C94.6479 57.9506 96.2035 59.7814 96.0398 61.3391C95.821 63.4407 94.2145 64.1526 90.2757 63.7096Z" fill="#2E2F35"/>
<path d="M90.1525 115.984C91.4786 115.874 92.3137 115.676 93.1148 115.768C94.6928 115.951 96.38 117.842 95.9773 119.165C95.6139 120.361 95.2483 121.8 93.544 122.03C91.7016 122.279 90.264 121.36 89.958 119.402C89.8092 118.451 90.0537 117.44 90.1525 115.984Z" fill="#2E2F35"/>
<path d="M155.21 89.8724C155.254 91.9145 154.122 93.078 152.086 93.0876C150.31 93.095 148.93 91.9326 148.938 90.4323C148.945 88.7832 150.485 86.9206 151.897 86.8494C153.951 86.7464 155.168 87.8567 155.21 89.8724Z" fill="#2E2F35"/>
<path d="M62.5106 150.935C61.0529 150.88 59.9319 149.477 59.9489 147.73C59.9691 145.756 61.1613 144.614 63.1589 144.656C64.8579 144.693 66.2539 145.931 66.2221 147.374C66.186 148.986 64.0928 150.994 62.5106 150.935Z" fill="#2E2F35"/>
<path d="M181.805 144.655C183.771 144.538 185.073 145.671 185.172 147.585C185.262 149.326 184.214 150.766 182.748 150.916C181.186 151.075 179.05 149.188 178.903 147.517C178.774 146.043 180.076 144.758 181.805 144.655Z" fill="#2E2F35"/>
<path d="M149.067 119.025C148.984 117.396 150.588 115.708 152.183 115.746C153.944 115.79 155.044 116.789 155.211 118.498C155.401 120.442 154.317 121.828 152.445 122.036C150.876 122.21 149.153 120.674 149.067 119.025Z" fill="#2E2F35"/>
<path d="M96.0409 89.8266C96.1195 91.464 94.5321 93.1184 92.9341 93.0865C91.1246 93.0504 90.113 92.1355 89.908 90.3515C89.6838 88.3986 90.7592 87.0428 92.6621 86.8346C94.2495 86.6614 95.9623 88.1786 96.0409 89.8266Z" fill="#2E2F35"/>
<path d="M271.731 93.0832C269.751 93.0238 268.661 91.8422 268.723 89.8255C268.785 87.8482 269.984 86.7623 272.01 86.8473C273.314 86.9014 274.803 88.4687 274.861 89.8457C274.93 91.4937 273.346 93.1321 271.731 93.0832Z" fill="#2E2F35"/>
</svg>
