<svg width="1358" height="768" viewBox="0 0 1358 768" fill="none" xmlns="http://www.w3.org/2000/svg">
<g opacity="0.3" clip-path="url(#clip0_75_4192)">
<path d="M1339.88 766.512V0.266968" stroke="#727272" stroke-dasharray="6 6"/>
<path d="M1293.17 766.512V0.266968" stroke="#727272" stroke-dasharray="6 6"/>
<path d="M1246.44 766.512V0.266968" stroke="#727272" stroke-dasharray="6 6"/>
<path d="M1199.72 766.512V0.266968" stroke="#727272" stroke-dasharray="6 6"/>
<path d="M1153 766.512V0.266968" stroke="#727272" stroke-dasharray="6 6"/>
<path d="M1106.27 766.512V0.266968" stroke="#727272" stroke-dasharray="6 6"/>
<path d="M1059.55 766.512V0.266968" stroke="#727272" stroke-dasharray="6 6"/>
<path d="M1012.83 766.512V0.266968" stroke="#727272" stroke-dasharray="6 6"/>
<path d="M966.114 766.512V0.266968" stroke="#727272" stroke-dasharray="6 6"/>
<path d="M919.39 766.512V0.266968" stroke="#727272" stroke-dasharray="6 6"/>
<path d="M872.669 766.512V0.266968" stroke="#727272" stroke-dasharray="6 6"/>
<path d="M825.949 766.512V0.266968" stroke="#727272" stroke-dasharray="6 6"/>
<path d="M779.224 766.512V0.266968" stroke="#727272" stroke-dasharray="6 6"/>
<path d="M732.497 766.512V0.266968" stroke="#727272" stroke-dasharray="6 6"/>
<path d="M685.753 766.523V0.278442" stroke="#727272" stroke-dasharray="6 6"/>
<path d="M639.032 766.523V0.278442" stroke="#727272" stroke-dasharray="6 6"/>
<path d="M592.308 766.523V0.278442" stroke="#727272" stroke-dasharray="6 6"/>
<path d="M545.587 766.523V0.278442" stroke="#727272" stroke-dasharray="6 6"/>
<path d="M498.866 766.523V0.278442" stroke="#727272" stroke-dasharray="6 6"/>
<path d="M452.142 766.523V0.278442" stroke="#727272" stroke-dasharray="6 6"/>
<path d="M405.421 766.523V0.278442" stroke="#727272" stroke-dasharray="6 6"/>
<path d="M358.694 766.523L358.695 0.278687" stroke="#727272" stroke-dasharray="6 6"/>
<path d="M311.976 766.523V0.278687" stroke="#727272" stroke-dasharray="6 6"/>
<path d="M265.259 766.523V0.278442" stroke="#727272" stroke-dasharray="6 6"/>
<path d="M218.528 766.523L218.529 0.278687" stroke="#727272" stroke-dasharray="6 6"/>
<path d="M171.804 766.523V0.278442" stroke="#727272" stroke-dasharray="6 6"/>
<path d="M125.083 766.523V0.278442" stroke="#727272" stroke-dasharray="6 6"/>
<path d="M78.3623 766.523L78.3624 0.278687" stroke="#727272" stroke-dasharray="6 6"/>
<path d="M31.647 766.523L31.6471 0.278442" stroke="#727272" stroke-dasharray="6 6"/>
<path d="M0.370605 733.318L1466.52 733.319" stroke="#727272" stroke-dasharray="6 6"/>
<path d="M0.370605 686.596H1466.52" stroke="#727272" stroke-dasharray="6 6"/>
<path d="M0.370605 639.873H1466.52" stroke="#727272" stroke-dasharray="6 6"/>
<path d="M0.370605 593.15L1466.52 593.151" stroke="#727272" stroke-dasharray="6 6"/>
<path d="M0.370605 546.428H1466.52" stroke="#727272" stroke-dasharray="6 6"/>
<path d="M0.370605 499.707H1466.52" stroke="#727272" stroke-dasharray="6 6"/>
<path d="M0.370605 452.982L1466.52 452.983" stroke="#727272" stroke-dasharray="6 6"/>
<path d="M0.370605 406.26H1466.52" stroke="#727272" stroke-dasharray="6 6"/>
<path d="M0.370605 359.539H1466.52" stroke="#727272" stroke-dasharray="6 6"/>
<path d="M0.370605 312.816L1466.52 312.817" stroke="#727272" stroke-dasharray="6 6"/>
<path d="M0.370605 266.094H1466.52" stroke="#727272" stroke-dasharray="6 6"/>
<path d="M0.370605 219.373H1466.52" stroke="#727272" stroke-dasharray="6 6"/>
<path d="M0.370605 172.65L1466.52 172.651" stroke="#727272" stroke-dasharray="6 6"/>
<path d="M0.370605 125.928H1466.52" stroke="#727272" stroke-dasharray="6 6"/>
<path d="M0.370605 79.2051L1466.52 79.2053" stroke="#727272" stroke-dasharray="6 6"/>
<path d="M0.370117 32.4844L1466.51 32.4846" stroke="#727272" stroke-dasharray="6 6"/>
</g>
<defs>
<clipPath id="clip0_75_4192">
<rect width="1358" height="767" fill="white" transform="translate(0.00488281 0.166992)"/>
</clipPath>
</defs>
</svg>
