<svg width="1265" height="817" viewBox="0 0 1265 817" fill="none" xmlns="http://www.w3.org/2000/svg">
<g opacity="0.08" clip-path="url(#clip0_448_1034)">
<path d="M606.434 1432.31C693.64 1343.95 744.323 1393.97 831.529 1305.61C918.734 1217.25 868.051 1167.23 955.232 1078.9C1042.41 990.563 1093.12 1040.56 1180.33 952.2C1267.53 863.84 1216.85 813.819 1304.06 725.459C1391.26 637.099 1441.94 687.121 1529.18 598.736C1616.41 510.351 1565.7 460.355 1652.9 371.995" stroke="#3B96FF" stroke-width="15" stroke-miterlimit="10"/>
<path d="M-384.93 437.578C-297.724 349.218 -247.041 399.24 -159.835 310.88C-72.6288 222.52 -123.312 172.499 -36.1311 84.1649C51.0497 -4.1693 101.758 45.8266 188.964 -42.533C276.17 -130.893 225.487 -180.914 312.693 -269.274C399.898 -357.633 450.582 -307.612 537.813 -395.997C625.044 -484.382 574.335 -534.378 661.541 -622.738" stroke="#3B96FF" stroke-width="15" stroke-miterlimit="10"/>
<path d="M248.515 1060.77C335.721 972.414 386.404 1022.43 473.61 934.075C560.815 845.716 510.132 795.694 597.313 707.36C684.494 619.026 735.202 669.022 822.408 580.662C909.614 492.303 858.931 442.281 946.137 353.922C1033.34 265.562 1084.03 315.583 1171.26 227.198C1258.49 138.813 1207.78 88.8173 1294.99 0.457669" stroke="#3B96FF" stroke-width="15" stroke-miterlimit="10"/>
<path d="M-72.9746 743.902C14.2313 655.542 64.9144 705.564 152.12 617.204C239.326 528.845 188.643 478.823 275.824 390.489C363.005 302.155 413.713 352.151 500.919 263.791C588.125 175.431 537.442 125.41 624.648 37.0505C711.854 -51.3091 762.537 -1.2878 849.768 -89.6729C936.999 -178.058 886.29 -228.054 973.496 -316.413" stroke="#3B96FF" stroke-width="15" stroke-miterlimit="10"/>
<path d="M559.209 1376.44C646.415 1288.08 697.098 1338.11 784.304 1249.75C871.51 1161.39 820.827 1111.37 908.008 1023.03C995.188 934.697 1045.9 984.693 1133.1 896.333C1220.31 807.974 1169.63 757.952 1256.83 669.593C1344.04 581.233 1394.72 631.254 1481.95 542.869C1569.18 454.484 1518.47 404.488 1605.68 316.129" stroke="#3B96FF" stroke-width="15" stroke-miterlimit="10"/>
<path d="M-231.633 600.706C-144.427 512.347 -93.7438 562.368 -6.53789 474.008C80.668 385.649 29.985 335.627 117.166 247.293C204.347 158.959 255.055 208.955 342.261 120.595C429.467 32.2355 378.783 -17.7858 465.989 -106.145C553.195 -194.505 603.878 -144.484 691.109 -232.869C778.34 -321.254 727.632 -371.25 814.838 -459.609" stroke="#3B96FF" stroke-width="15" stroke-miterlimit="10"/>
<path d="M400.55 1222.85C487.756 1134.49 538.439 1184.51 625.645 1096.15C712.851 1007.79 662.168 957.772 749.348 869.438C836.529 781.104 887.237 831.099 974.443 742.74C1061.65 654.38 1010.97 604.359 1098.17 515.999C1185.38 427.64 1236.06 477.661 1323.29 389.276C1410.52 300.891 1359.81 250.895 1447.02 162.535" stroke="#3B96FF" stroke-width="15" stroke-miterlimit="10"/>
<path d="M80.3213 907.03C167.527 818.671 218.21 868.692 305.416 780.332C392.622 691.973 341.939 641.951 429.12 553.617C516.301 465.283 567.009 515.279 654.215 426.919C741.421 338.559 690.738 288.538 777.944 200.179C865.149 111.819 915.833 161.84 1003.06 73.4552C1090.29 -14.9299 1039.59 -64.9257 1126.79 -153.285" stroke="#3B96FF" stroke-width="15" stroke-miterlimit="10"/>
<path d="M712.505 1539.57C799.711 1451.21 850.394 1501.23 937.6 1412.88C1024.81 1324.52 974.123 1274.49 1061.3 1186.16C1148.48 1097.83 1199.19 1147.82 1286.4 1059.46C1373.6 971.102 1322.92 921.081 1410.13 832.721C1497.33 744.362 1548.02 794.383 1635.25 705.998C1722.48 617.613 1671.77 567.617 1758.98 479.257" stroke="#3B96FF" stroke-width="15" stroke-miterlimit="10"/>
<path d="M-406.119 408.692C-318.913 320.332 -268.23 370.354 -181.024 281.994C-93.8183 193.634 -144.501 143.613 -57.3205 55.2788C29.8603 -33.0554 80.5685 16.9405 167.774 -71.4191C254.98 -159.779 204.297 -209.8 291.503 -298.16C378.709 -386.519 429.392 -336.498 516.623 -424.883C603.854 -513.268 553.146 -563.264 640.352 -651.624" stroke="#3B96FF" stroke-width="15" stroke-miterlimit="10"/>
<path d="M227.325 1031.89C314.531 943.527 365.214 993.549 452.42 905.189C539.626 816.829 488.943 766.808 576.124 678.474C663.305 590.14 714.013 640.135 801.219 551.776C888.425 463.416 837.742 413.395 924.947 325.035C1012.15 236.676 1062.84 286.697 1150.07 198.312C1237.3 109.927 1186.59 59.9309 1273.8 -28.4287" stroke="#3B96FF" stroke-width="15" stroke-miterlimit="10"/>
<path d="M-94.165 715.016C-6.95912 626.656 43.724 676.678 130.93 588.318C218.136 499.958 167.453 449.937 254.634 361.603C341.814 273.269 392.523 323.265 479.728 234.905C566.934 146.545 516.251 96.5241 603.457 8.16443C690.663 -80.1952 741.346 -30.1739 828.577 -118.559C915.808 -206.944 865.1 -256.94 952.306 -345.3" stroke="#3B96FF" stroke-width="15" stroke-miterlimit="10"/>
<path d="M538.02 1347.56C625.225 1259.2 675.909 1309.22 763.114 1220.86C850.32 1132.5 799.637 1082.48 886.818 994.145C973.999 905.811 1024.71 955.807 1111.91 867.448C1199.12 779.088 1148.44 729.067 1235.64 640.707C1322.85 552.347 1373.53 602.369 1460.76 513.984C1547.99 425.599 1497.28 375.603 1584.49 287.243" stroke="#3B96FF" stroke-width="15" stroke-miterlimit="10"/>
<path d="M-252.823 571.82C-165.617 483.46 -114.934 533.482 -27.7283 445.122C59.4776 356.763 8.79452 306.741 95.9754 218.407C183.156 130.073 233.864 180.069 321.07 91.709C408.276 3.34941 357.593 -46.6719 444.799 -135.031C532.005 -223.391 582.688 -173.37 669.919 -261.755C757.15 -350.14 706.442 -400.136 793.648 -488.495" stroke="#3B96FF" stroke-width="15" stroke-miterlimit="10"/>
<path d="M379.36 1193.96C466.566 1105.61 517.249 1155.63 604.455 1067.27C691.661 978.907 640.978 928.886 728.159 840.552C815.34 752.218 866.048 802.214 953.254 713.854C1040.46 625.494 989.777 575.473 1076.98 487.113C1164.19 398.754 1214.87 448.775 1302.1 360.39C1389.33 272.005 1338.63 222.009 1425.83 133.649" stroke="#3B96FF" stroke-width="15" stroke-miterlimit="10"/>
<path d="M59.1318 878.144C146.338 789.784 197.021 839.806 284.227 751.446C371.433 663.086 320.75 613.065 407.93 524.731C495.111 436.397 545.819 486.393 633.025 398.033C720.231 309.673 669.548 259.652 756.754 171.292C843.96 82.9329 894.643 132.954 981.874 44.5691C1069.11 -43.816 1018.4 -93.8119 1105.6 -182.171" stroke="#3B96FF" stroke-width="15" stroke-miterlimit="10"/>
<path d="M691.315 1510.69C778.521 1422.33 829.204 1472.35 916.41 1383.99C1003.62 1295.63 952.933 1245.61 1040.11 1157.27C1127.29 1068.94 1178 1118.94 1265.21 1030.58C1352.41 942.216 1301.73 892.195 1388.94 803.835C1476.14 715.475 1526.83 765.497 1614.06 677.112C1701.29 588.727 1650.58 538.731 1737.79 450.371" stroke="#3B96FF" stroke-width="15" stroke-miterlimit="10"/>
<path d="M-465.659 355.327C-378.453 266.967 -327.77 316.988 -240.564 228.629C-153.358 140.269 -204.041 90.2476 -116.861 1.91344C-29.6798 -86.4208 21.0284 -36.4249 108.234 -124.784C195.44 -213.144 144.757 -263.165 231.963 -351.525C319.169 -439.885 369.852 -389.863 457.083 -478.248C544.314 -566.633 493.606 -616.629 580.812 -704.989" stroke="#3B96FF" stroke-width="15" stroke-miterlimit="10"/>
<path d="M167.785 978.521C254.991 890.162 305.674 940.183 392.88 851.823C480.086 763.464 429.403 713.442 516.584 625.108C603.765 536.774 654.473 586.77 741.679 498.41C828.885 410.051 778.201 360.029 865.407 271.67C952.613 183.31 1003.3 233.331 1090.53 144.946C1177.76 56.5614 1127.05 6.56547 1214.26 -81.7942" stroke="#3B96FF" stroke-width="15" stroke-miterlimit="10"/>
<path d="M-153.704 672.048C-66.4982 583.689 -15.8151 633.71 71.3908 545.351C158.597 456.991 107.914 406.97 195.094 318.635C282.275 230.301 332.983 280.297 420.189 191.937C507.395 103.578 456.712 53.5565 543.918 -34.8031C631.124 -123.163 681.807 -73.1414 769.038 -161.526C856.269 -249.912 805.561 -299.907 892.767 -388.267" stroke="#3B96FF" stroke-width="15" stroke-miterlimit="10"/>
<path d="M478.479 1294.19C565.685 1205.83 616.368 1255.86 703.574 1167.5C790.78 1079.14 740.097 1029.11 827.278 940.78C914.459 852.446 965.167 902.442 1052.37 814.082C1139.58 725.723 1088.9 675.701 1176.1 587.342C1263.31 498.982 1313.99 549.003 1401.22 460.618C1488.45 372.233 1437.74 322.237 1524.95 233.878" stroke="#3B96FF" stroke-width="15" stroke-miterlimit="10"/>
<path d="M-312.362 518.454C-225.156 430.095 -174.473 480.116 -87.2674 391.757C-0.0614658 303.397 -50.7445 253.376 36.4363 165.041C123.617 76.7072 174.325 126.703 261.531 38.3434C348.737 -50.0162 298.054 -100.037 385.26 -188.397C472.466 -276.757 523.149 -226.735 610.38 -315.12C697.611 -403.506 646.903 -453.501 734.109 -541.861" stroke="#3B96FF" stroke-width="15" stroke-miterlimit="10"/>
<path d="M321.081 1141.65C408.287 1053.29 458.97 1103.31 546.176 1014.95C633.382 926.592 582.699 876.571 669.88 788.237C757.06 699.903 807.769 749.898 894.975 661.539C982.18 573.179 931.497 523.158 1018.7 434.798C1105.91 346.439 1156.59 396.46 1243.82 308.075C1331.05 219.69 1280.35 169.694 1367.55 81.3344" stroke="#3B96FF" stroke-width="15" stroke-miterlimit="10"/>
<path d="M-0.408203 824.779C86.7977 736.419 137.481 786.44 224.687 698.081C311.893 609.721 261.21 559.7 348.39 471.365C435.571 383.031 486.279 433.027 573.485 344.668C660.691 256.308 610.008 206.287 697.214 117.927C784.42 29.5674 835.103 79.5887 922.334 -8.79639C1009.57 -97.1814 958.857 -147.177 1046.06 -235.537" stroke="#3B96FF" stroke-width="15" stroke-miterlimit="10"/>
<path d="M631.775 1457.32C718.981 1368.96 769.664 1418.98 856.87 1330.62C944.076 1242.26 893.393 1192.24 980.574 1103.91C1067.75 1015.57 1118.46 1065.57 1205.67 977.21C1292.87 888.85 1242.19 838.829 1329.4 750.469C1416.6 662.11 1467.29 712.131 1554.52 623.746C1641.75 535.361 1591.04 485.365 1678.25 397.006" stroke="#3B96FF" stroke-width="15" stroke-miterlimit="10"/>
<path d="M-359.587 462.589C-272.381 374.229 -221.698 424.25 -134.492 335.891C-47.2861 247.531 -97.9691 197.51 -10.7883 109.176C76.3925 20.8414 127.101 70.8373 214.307 -17.5223C301.513 -105.882 250.829 -155.903 338.035 -244.263C425.241 -332.622 475.924 -282.601 563.155 -370.986C650.386 -459.371 599.678 -509.367 686.884 -597.727" stroke="#3B96FF" stroke-width="15" stroke-miterlimit="10"/>
<path d="M273.855 1085.78C361.061 997.424 411.744 1047.45 498.95 959.086C586.156 870.726 535.473 820.705 622.654 732.371C709.835 644.036 760.543 694.032 847.749 605.673C934.955 517.313 884.272 467.292 971.478 378.932C1058.68 290.573 1109.37 340.594 1196.6 252.209C1283.83 163.824 1233.12 113.828 1320.33 25.4682" stroke="#3B96FF" stroke-width="15" stroke-miterlimit="10"/>
<path d="M-47.6328 768.913C39.5731 680.553 90.2562 730.575 177.462 642.215C264.668 553.855 213.985 503.834 301.166 415.5C388.347 327.166 439.055 377.161 526.261 288.802C613.467 200.442 562.783 150.421 649.989 62.0613C737.195 -26.2983 787.878 23.7229 875.109 -64.6621C962.34 -153.047 911.632 -203.043 998.838 -291.403" stroke="#3B96FF" stroke-width="15" stroke-miterlimit="10"/>
<path d="M584.551 1401.46C671.757 1313.1 722.44 1363.12 809.646 1274.76C896.852 1186.4 846.169 1136.38 933.349 1048.04C1020.53 959.708 1071.24 1009.7 1158.44 921.344C1245.65 832.985 1194.97 782.963 1282.17 694.604C1369.38 606.244 1420.06 656.265 1507.29 567.88C1594.52 479.495 1543.82 429.499 1631.02 341.14" stroke="#3B96FF" stroke-width="15" stroke-miterlimit="10"/>
<path d="M-206.292 625.717C-119.086 537.357 -68.403 587.379 18.8029 499.019C106.009 410.659 55.3258 360.638 142.507 272.304C229.687 183.97 280.396 233.966 367.602 145.606C454.807 57.2463 404.124 7.22498 491.33 -81.1346C578.536 -169.494 629.219 -119.473 716.45 -207.858C803.681 -296.243 752.973 -346.239 840.179 -434.599" stroke="#3B96FF" stroke-width="15" stroke-miterlimit="10"/>
<path d="M425.892 1247.86C513.098 1159.5 563.781 1209.52 650.987 1121.16C738.192 1032.8 687.509 982.783 774.69 894.449C861.871 806.115 912.579 856.11 999.785 767.751C1086.99 679.391 1036.31 629.37 1123.51 541.01C1210.72 452.651 1261.4 502.672 1348.63 414.287C1435.86 325.902 1385.16 275.906 1472.36 187.546" stroke="#3B96FF" stroke-width="15" stroke-miterlimit="10"/>
<path d="M105.663 932.041C192.869 843.682 243.552 893.703 330.758 805.343C417.964 716.984 367.281 666.962 454.462 578.628C541.643 490.294 592.351 540.29 679.557 451.93C766.763 363.57 716.079 313.549 803.285 225.19C890.491 136.83 941.174 186.851 1028.41 98.4662C1115.64 10.0811 1064.93 -39.9148 1152.13 -128.274" stroke="#3B96FF" stroke-width="15" stroke-miterlimit="10"/>
<path d="M737.846 1564.58C825.052 1476.22 875.735 1526.25 962.941 1437.89C1050.15 1349.53 999.463 1299.5 1086.64 1211.17C1173.83 1122.84 1224.53 1172.83 1311.74 1084.47C1398.95 996.113 1348.26 946.092 1435.47 857.732C1522.67 769.373 1573.36 819.394 1660.59 731.009C1747.82 642.624 1697.11 592.628 1784.32 504.268" stroke="#3B96FF" stroke-width="15" stroke-miterlimit="10"/>
<path d="M-25.749 799.768C61.4569 711.408 112.14 761.43 199.346 673.07C286.552 584.71 235.869 534.689 323.05 446.355C410.23 358.021 460.939 408.016 548.144 319.657C635.35 231.297 584.667 181.276 671.873 92.9163C759.079 4.55663 809.762 54.5779 896.993 -33.8071C984.224 -122.192 933.516 -172.188 1020.72 -260.548" stroke="#3B96FF" stroke-width="15" stroke-miterlimit="10"/>
<path d="M-491 330.316C-403.794 241.956 -353.111 291.977 -265.905 203.618C-178.699 115.258 -229.382 65.2367 -142.201 -23.0975C-55.0206 -111.432 -4.31241 -61.4359 82.8935 -149.795C170.099 -238.155 119.416 -288.176 206.622 -376.536C293.828 -464.896 344.511 -414.874 431.742 -503.259C518.973 -591.644 468.265 -641.64 555.471 -730" stroke="#3B96FF" stroke-width="15" stroke-miterlimit="10"/>
<path d="M142.444 953.511C229.65 865.151 280.333 915.172 367.539 826.813C454.745 738.453 404.062 688.432 491.243 600.098C578.424 511.763 629.132 561.759 716.338 473.4C803.544 385.04 752.861 335.019 840.067 246.659C927.272 158.299 977.956 208.321 1065.19 119.936C1152.42 31.5506 1101.71 -18.4453 1188.92 -106.805" stroke="#3B96FF" stroke-width="15" stroke-miterlimit="10"/>
<path d="M-179.045 647.037C-91.839 558.678 -41.1559 608.699 46.05 520.34C133.256 431.98 82.5728 381.959 169.754 293.624C256.934 205.29 307.643 255.286 394.849 166.926C482.055 78.5668 431.371 28.5455 518.577 -59.8141C605.783 -148.174 656.466 -98.1524 743.697 -186.537C830.928 -274.923 780.22 -324.918 867.426 -413.278" stroke="#3B96FF" stroke-width="15" stroke-miterlimit="10"/>
<path d="M453.139 1269.18C540.345 1180.82 591.028 1230.84 678.234 1142.48C765.44 1054.13 714.756 1004.1 801.937 915.77C889.118 827.435 939.826 877.431 1027.03 789.072C1114.24 700.712 1063.55 650.691 1150.76 562.331C1237.97 473.971 1288.65 523.993 1375.88 435.608C1463.11 347.223 1412.4 297.227 1499.61 208.867" stroke="#3B96FF" stroke-width="15" stroke-miterlimit="10"/>
<path d="M-337.704 493.444C-250.498 405.084 -199.815 455.105 -112.609 366.746C-25.4033 278.386 -76.0863 228.365 11.0945 140.031C98.2753 51.6964 148.983 101.692 236.189 13.3327C323.395 -75.0269 272.712 -125.048 359.918 -213.408C447.124 -301.767 497.807 -251.746 585.038 -340.131C672.269 -428.516 621.561 -478.512 708.767 -566.872" stroke="#3B96FF" stroke-width="15" stroke-miterlimit="10"/>
<path d="M295.739 1116.64C382.945 1028.28 433.628 1078.3 520.834 989.941C608.04 901.581 557.357 851.56 644.538 763.226C731.719 674.892 782.427 724.888 869.633 636.528C956.839 548.168 906.156 498.147 993.361 409.787C1080.57 321.428 1131.25 371.449 1218.48 283.064C1305.71 194.679 1255 144.683 1342.21 56.3234" stroke="#3B96FF" stroke-width="15" stroke-miterlimit="10"/>
<path d="M-431.461 383.681C-344.255 295.321 -293.572 345.343 -206.366 256.983C-119.16 168.623 -169.843 118.602 -82.6623 30.2678C4.51848 -58.0664 55.2267 -8.0705 142.433 -96.4301C229.638 -184.79 178.955 -234.811 266.161 -323.171C353.367 -411.53 404.05 -361.509 491.281 -449.894C578.512 -538.279 527.804 -588.275 615.01 -676.635" stroke="#3B96FF" stroke-width="15" stroke-miterlimit="10"/>
<path d="M201.983 1006.88C289.189 918.516 339.872 968.538 427.078 880.178C514.284 791.818 463.601 741.797 550.782 653.463C637.963 565.129 688.671 615.124 775.877 526.765C863.083 438.405 812.4 388.384 899.606 300.024C986.812 211.665 1037.49 261.686 1124.73 173.301C1211.96 84.9159 1161.25 34.92 1248.45 -53.4397" stroke="#3B96FF" stroke-width="15" stroke-miterlimit="10"/>
<path d="M-119.506 690.005C-32.2999 601.645 18.3831 651.666 105.589 563.307C192.795 474.947 142.112 424.926 229.293 336.592C316.474 248.257 367.182 298.253 454.388 209.894C541.594 121.534 490.91 71.5128 578.116 -16.8468C665.322 -105.206 716.005 -55.1851 803.236 -143.57C890.467 -231.955 839.759 -281.951 926.965 -370.311" stroke="#3B96FF" stroke-width="15" stroke-miterlimit="10"/>
<path d="M512.678 1322.55C599.884 1234.19 650.567 1284.21 737.773 1195.85C824.979 1107.49 774.295 1057.47 861.476 969.135C948.657 880.801 999.365 930.796 1086.57 842.437C1173.78 754.077 1123.09 704.056 1210.3 615.696C1297.51 527.337 1348.19 577.358 1435.42 488.973C1522.65 400.588 1471.94 350.592 1559.15 262.232" stroke="#3B96FF" stroke-width="15" stroke-miterlimit="10"/>
<path d="M-278.165 546.809C-190.959 458.449 -140.276 508.471 -53.0701 420.111C34.1358 331.752 -16.5473 281.73 70.6336 193.396C157.814 105.062 208.523 155.058 295.728 66.698C382.934 -21.6616 332.251 -71.6829 419.457 -160.042C506.663 -248.402 557.346 -198.381 644.577 -286.766C731.808 -375.151 681.1 -425.147 768.306 -513.506" stroke="#3B96FF" stroke-width="15" stroke-miterlimit="10"/>
<path d="M354.02 1168.95C441.225 1080.59 491.909 1130.62 579.114 1042.26C666.32 953.896 615.637 903.875 702.818 815.541C789.999 727.207 840.707 777.203 927.913 688.843C1015.12 600.483 964.436 550.462 1051.64 462.102C1138.85 373.743 1189.53 423.764 1276.76 335.379C1363.99 246.994 1313.28 196.998 1400.49 108.638" stroke="#3B96FF" stroke-width="15" stroke-miterlimit="10"/>
<path d="M33.79 853.133C120.996 764.774 171.679 814.795 258.885 726.435C346.091 638.076 295.408 588.054 382.589 499.72C469.769 411.386 520.478 461.382 607.684 373.022C694.889 284.663 644.206 234.641 731.412 146.282C818.618 57.9221 869.301 107.943 956.532 19.5583C1043.76 -68.8267 993.055 -118.823 1080.26 -207.182" stroke="#3B96FF" stroke-width="15" stroke-miterlimit="10"/>
<path d="M665.974 1485.68C753.18 1397.32 803.863 1447.34 891.069 1358.98C978.274 1270.62 927.591 1220.6 1014.77 1132.26C1101.95 1043.93 1152.66 1093.92 1239.87 1005.56C1327.07 917.205 1276.39 867.184 1363.6 778.824C1450.8 690.464 1501.48 740.486 1588.72 652.101C1675.95 563.716 1625.24 513.72 1712.44 425.36" stroke="#3B96FF" stroke-width="15" stroke-miterlimit="10"/>
</g>
<defs>
<clipPath id="clip0_448_1034">
<rect width="1265" height="817" fill="white"/>
</clipPath>
</defs>
</svg>
