<svg width="672" height="58" viewBox="0 0 672 58" fill="none" xmlns="http://www.w3.org/2000/svg">
<path d="M7.3437 1.545V0.5H12.4477V1.545H7.3437ZM13.9394 1.545V0.5H19.0434V1.545H13.9394ZM20.5351 1.545V0.5H25.6391V1.545H20.5351ZM27.1308 1.545V0.5H32.2348V1.545H27.1308ZM33.7265 1.545V0.5H38.8305V1.545H33.7265ZM40.3222 1.545V0.5H45.4262V1.545H40.3222ZM79.8964 1.545V0.5H85.0004V1.545H79.8964ZM86.4921 1.545V0.5H91.5961V1.545H86.4921ZM93.0878 1.545V0.5H98.1918V1.545H93.0878ZM99.6835 1.545V0.5H104.788V1.545H99.6835ZM106.279 1.545V0.5H111.383V1.545H106.279ZM112.875 1.545V0.5H117.979V1.545H112.875ZM152.449 1.545V0.5H157.553V1.545H152.449ZM159.045 1.545V0.5H164.149V1.545H159.045ZM192.023 1.545V0.5H197.127V1.545H192.023ZM198.619 1.545V0.5H203.723V1.545H198.619ZM238.193 1.545V0.5H243.297V1.545H238.193ZM244.789 1.545V0.5H249.893V1.545H244.789ZM277.768 1.545V0.5H282.872V1.545H277.768ZM284.363 1.545V0.5H289.467V1.545H284.363ZM323.937 1.545V0.5H329.041V1.545H323.937ZM330.533 1.545V0.5H335.637V1.545H330.533ZM350.32 1.545V0.5H355.424V1.545H350.32ZM356.916 1.545V0.5H362.02V1.545H356.916ZM396.49 1.545V0.5H401.594V1.545H396.49ZM403.086 1.545V0.5H408.19V1.545H403.086ZM429.469 1.545V0.5H434.573V1.545H429.469ZM436.064 1.545V0.5H441.168V1.545H436.064ZM475.639 1.545V0.5H480.743V1.545H475.639ZM482.234 1.545V0.5H487.338V1.545H482.234ZM488.83 1.545V0.5H493.934V1.545H488.83ZM495.426 1.545V0.5H500.53V1.545H495.426ZM502.021 1.545V0.5H507.125V1.545H502.021ZM508.617 1.545V0.5H513.721V1.545H508.617ZM567.978 1.545V0.5H573.082V1.545H567.978ZM574.574 1.545V0.5H579.678V1.545H574.574ZM581.17 1.545V0.5H586.274V1.545H581.17ZM587.766 1.545V0.5H592.87V1.545H587.766ZM594.361 1.545V0.5H599.465V1.545H594.361ZM600.957 1.545V0.5H606.061V1.545H600.957ZM640.531 1.545V0.5H645.635V1.545H640.531ZM647.127 1.545V0.5H652.231V1.545H647.127ZM0.803 15.49L4.609 6.14H5.797L1.98 15.49H0.803ZM11.2157 15.49L7.3987 6.14H8.5867L12.3927 15.49H11.2157ZM27.1308 15.545V14.5H32.2348V15.545H27.1308ZM33.7265 15.545V14.5H38.8305V15.545H33.7265ZM40.3222 15.545V14.5H45.4262V15.545H40.3222ZM50.7899 15.49L46.9729 6.14H48.1609L51.9669 15.49H50.7899ZM73.3557 15.49L77.1617 6.14H78.3497L74.5327 15.49H73.3557ZM83.7684 15.49L79.9514 6.14H81.1394L84.9454 15.49H83.7684ZM99.6835 15.545V14.5H104.788V15.545H99.6835ZM106.279 15.545V14.5H111.383V15.545H106.279ZM123.343 15.49L119.526 6.14H120.714L124.52 15.49H123.343ZM145.908 15.49L149.714 6.14H150.902L147.085 15.49H145.908ZM156.321 15.49L152.504 6.14H153.692L157.498 15.49H156.321ZM166.29 10.331V6.8H167.588V10.331H166.29ZM168.798 10.331V6.8H170.096V10.331H168.798ZM172.896 11.145V10.155H176.68V11.145H172.896ZM181.384 14.566C181.113 14.566 180.882 14.478 180.691 14.302C180.5 14.1187 180.405 13.8987 180.405 13.642C180.405 13.3853 180.5 13.169 180.691 12.993C180.882 12.817 181.113 12.729 181.384 12.729C181.663 12.729 181.894 12.817 182.077 12.993C182.268 13.169 182.363 13.3853 182.363 13.642C182.363 13.8987 182.268 14.1187 182.077 14.302C181.894 14.478 181.663 14.566 181.384 14.566ZM185.483 15.49L189.289 6.14H190.477L186.66 15.49H185.483ZM209.087 15.49L205.27 6.14H206.458L210.264 15.49H209.087ZM231.653 15.49L235.459 6.14H236.647L232.83 15.49H231.653ZM242.065 15.49L238.248 6.14H239.436L243.242 15.49H242.065ZM252.034 10.331V6.8H253.332V10.331H252.034ZM254.542 10.331V6.8H255.84V10.331H254.542ZM258.64 11.145V10.155H262.424V11.145H258.64ZM267.128 14.566C266.857 14.566 266.626 14.478 266.435 14.302C266.244 14.1187 266.149 13.8987 266.149 13.642C266.149 13.3853 266.244 13.169 266.435 12.993C266.626 12.817 266.857 12.729 267.128 12.729C267.407 12.729 267.638 12.817 267.821 12.993C268.012 13.169 268.107 13.3853 268.107 13.642C268.107 13.8987 268.012 14.1187 267.821 14.302C267.638 14.478 267.407 14.566 267.128 14.566ZM271.227 15.49L275.033 6.14H276.221L272.404 15.49H271.227ZM294.831 15.49L291.014 6.14H292.202L296.008 15.49H294.831ZM317.397 15.49L321.203 6.14H322.391L318.574 15.49H317.397ZM327.809 15.49L323.992 6.14H325.18L328.986 15.49H327.809ZM341.001 15.49L337.184 6.14H338.372L342.178 15.49H341.001ZM343.78 15.49L347.586 6.14H348.774L344.957 15.49H343.78ZM354.192 15.49L350.375 6.14H351.563L355.369 15.49H354.192ZM367.384 15.49L363.567 6.14H364.755L368.561 15.49H367.384ZM389.949 15.49L393.755 6.14H394.943L391.126 15.49H389.949ZM400.362 15.49L396.545 6.14H397.733L401.539 15.49H400.362ZM410.331 10.331V6.8H411.629V10.331H410.331ZM412.839 10.331V6.8H414.137V10.331H412.839ZM416.937 11.145V10.155H420.721V11.145H416.937ZM425.425 14.566C425.154 14.566 424.923 14.478 424.732 14.302C424.541 14.1187 424.446 13.8987 424.446 13.642C424.446 13.3853 424.541 13.169 424.732 12.993C424.923 12.817 425.154 12.729 425.425 12.729C425.704 12.729 425.935 12.817 426.118 12.993C426.309 13.169 426.404 13.3853 426.404 13.642C426.404 13.8987 426.309 14.1187 426.118 14.302C425.935 14.478 425.704 14.566 425.425 14.566ZM433.341 15.49L429.524 6.14H430.712L434.518 15.49H433.341ZM446.532 15.49L442.715 6.14H443.903L447.709 15.49H446.532ZM469.098 15.49L472.904 6.14H474.092L470.275 15.49H469.098ZM479.511 15.49L475.694 6.14H476.882L480.688 15.49H479.511ZM495.426 15.545V14.5H500.53V15.545H495.426ZM502.021 15.545V14.5H507.125V15.545H502.021ZM508.617 15.545V14.5H513.721V15.545H508.617ZM519.085 15.49L515.268 6.14H516.456L520.262 15.49H519.085ZM561.438 15.49L565.244 6.14H566.432L562.615 15.49H561.438ZM571.85 15.49L568.033 6.14H569.221L573.027 15.49H571.85ZM587.766 15.545V14.5H592.87V15.545H587.766ZM594.361 15.545V14.5H599.465V15.545H594.361ZM611.425 15.49L607.608 6.14H608.796L612.602 15.49H611.425ZM633.991 15.49L637.797 6.14H638.985L635.168 15.49H633.991ZM644.403 15.49L640.586 6.14H641.774L645.58 15.49H644.403ZM657.595 15.49L653.778 6.14H654.966L658.772 15.49H657.595ZM4.62 29.49L0.803 20.14H1.991L5.797 29.49H4.62ZM17.8114 29.49L13.9944 20.14H15.1824L18.9884 29.49H17.8114ZM31.0028 29.49L27.1858 20.14H28.3738L32.1798 29.49H31.0028ZM33.7265 29.545V28.5H38.8305V29.545H33.7265ZM40.3222 29.545V28.5H45.4262V29.545H40.3222ZM46.9179 29.545V28.5H52.0219V29.545H46.9179ZM53.5136 29.545V28.5H58.6176V29.545H53.5136ZM77.1727 29.49L73.3557 20.14H74.5437L78.3497 29.49H77.1727ZM90.3641 29.49L86.5471 20.14H87.7351L91.5411 29.49H90.3641ZM103.556 29.49L99.7385 20.14H100.927L104.733 29.49H103.556ZM106.334 29.49L110.14 20.14H111.328L107.511 29.49H106.334ZM116.747 29.49L112.93 20.14H114.118L117.924 29.49H116.747ZM129.938 29.49L126.121 20.14H127.309L131.115 29.49H129.938ZM149.725 29.49L145.908 20.14H147.096L150.902 29.49H149.725ZM162.917 29.49L159.1 20.14H160.288L164.094 29.49H162.917ZM176.108 29.49L172.291 20.14H173.479L177.285 29.49H176.108ZM179.492 25.145V24.155H183.276V25.145H179.492ZM187.98 28.566C187.708 28.566 187.477 28.478 187.287 28.302C187.096 28.1187 187.001 27.8987 187.001 27.642C187.001 27.3853 187.096 27.169 187.287 26.993C187.477 26.817 187.708 26.729 187.98 26.729C188.258 26.729 188.489 26.817 188.673 26.993C188.863 27.169 188.959 27.3853 188.959 27.642C188.959 27.8987 188.863 28.1187 188.673 28.302C188.489 28.478 188.258 28.566 187.98 28.566ZM192.078 29.49L195.884 20.14H197.072L193.255 29.49H192.078ZM202.491 29.49L198.674 20.14H199.862L203.668 29.49H202.491ZM215.683 29.49L211.866 20.14H213.054L216.86 29.49H215.683ZM235.47 29.49L231.653 20.14H232.841L236.647 29.49H235.47ZM248.661 29.49L244.844 20.14H246.032L249.838 29.49H248.661ZM261.852 29.49L258.035 20.14H259.223L263.029 29.49H261.852ZM265.236 25.145V24.155H269.02V25.145H265.236ZM273.724 28.566C273.452 28.566 273.221 28.478 273.031 28.302C272.84 28.1187 272.745 27.8987 272.745 27.642C272.745 27.3853 272.84 27.169 273.031 26.993C273.221 26.817 273.452 26.729 273.724 26.729C274.002 26.729 274.233 26.817 274.417 26.993C274.607 27.169 274.703 27.3853 274.703 27.642C274.703 27.8987 274.607 28.1187 274.417 28.302C274.233 28.478 274.002 28.566 273.724 28.566ZM277.823 29.49L281.629 20.14H282.817L279 29.49H277.823ZM288.235 29.49L284.418 20.14H285.606L289.412 29.49H288.235ZM301.427 29.49L297.61 20.14H298.798L302.604 29.49H301.427ZM321.214 29.49L317.397 20.14H318.585L322.391 29.49H321.214ZM334.405 29.49L330.588 20.14H331.776L335.582 29.49H334.405ZM347.597 29.49L343.78 20.14H344.968L348.774 29.49H347.597ZM350.32 29.545V28.5H355.424V29.545H350.32ZM360.788 29.49L356.971 20.14H358.159L361.965 29.49H360.788ZM373.979 29.49L370.162 20.14H371.35L375.156 29.49H373.979ZM393.766 29.49L389.949 20.14H391.137L394.943 29.49H393.766ZM406.958 29.49L403.141 20.14H404.329L408.135 29.49H406.958ZM420.149 29.49L416.332 20.14H417.52L421.326 29.49H420.149ZM423.533 25.145V24.155H427.317V25.145H423.533ZM432.021 28.566C431.749 28.566 431.518 28.478 431.328 28.302C431.137 28.1187 431.042 27.8987 431.042 27.642C431.042 27.3853 431.137 27.169 431.328 26.993C431.518 26.817 431.749 26.729 432.021 26.729C432.299 26.729 432.53 26.817 432.714 26.993C432.904 27.169 433 27.3853 433 27.642C433 27.8987 432.904 28.1187 432.714 28.302C432.53 28.478 432.299 28.566 432.021 28.566ZM453.128 29.49L449.311 20.14H450.499L454.305 29.49H453.128ZM472.915 29.49L469.098 20.14H470.286L474.092 29.49H472.915ZM486.106 29.49L482.289 20.14H483.477L487.283 29.49H486.106ZM502.021 29.545V28.5H507.125V29.545H502.021ZM508.617 29.545V28.5H513.721V29.545H508.617ZM519.085 29.49L515.268 20.14H516.456L520.262 29.49H519.085ZM565.255 29.49L561.438 20.14H562.626L566.432 29.49H565.255ZM578.446 29.49L574.629 20.14H575.817L579.623 29.49H578.446ZM594.361 29.545V28.5H599.465V29.545H594.361ZM600.957 29.545V28.5H606.061V29.545H600.957ZM618.02 29.49L614.203 20.14H615.391L619.197 29.49H618.02ZM637.808 29.49L633.991 20.14H635.179L638.985 29.49H637.808ZM650.999 29.49L647.182 20.14H648.37L652.176 29.49H650.999ZM664.19 29.49L660.373 20.14H661.561L665.367 29.49H664.19ZM11.2157 43.49L7.3987 34.14H8.5867L12.3927 43.49H11.2157ZM24.4071 43.49L20.5901 34.14H21.7781L25.5841 43.49H24.4071ZM27.1308 43.545V42.5H32.2348V43.545H27.1308ZM33.7265 43.545V42.5H38.8305V43.545H33.7265ZM40.3222 43.545V42.5H45.4262V43.545H40.3222ZM46.9179 43.545V42.5H52.0219V43.545H46.9179ZM53.5136 43.545V42.5H58.6176V43.545H53.5136ZM63.9813 43.49L60.1643 34.14H61.3523L65.1583 43.49H63.9813ZM83.7684 43.49L79.9514 34.14H81.1394L84.9454 43.49H83.7684ZM96.9598 43.49L93.1428 34.14H94.3308L98.1368 43.49H96.9598ZM99.6835 43.545V42.5H104.788V43.545H99.6835ZM106.279 43.545V42.5H111.383V43.545H106.279ZM112.875 43.545V42.5H117.979V43.545H112.875ZM119.471 43.545V42.5H124.575V43.545H119.471ZM126.066 43.545V42.5H131.17V43.545H126.066ZM136.534 43.49L132.717 34.14H133.905L137.711 43.49H136.534ZM156.321 43.49L152.504 34.14H153.692L157.498 43.49H156.321ZM169.513 43.49L165.696 34.14H166.884L170.69 43.49H169.513ZM172.236 43.545V42.5H177.34V43.545H172.236ZM182.704 43.49L178.887 34.14H180.075L183.881 43.49H182.704ZM195.895 43.49L192.078 34.14H193.266L197.072 43.49H195.895ZM209.087 43.49L205.27 34.14H206.458L210.264 43.49H209.087ZM211.811 43.545V42.5H216.915V43.545H211.811ZM222.278 43.49L218.461 34.14H219.649L223.455 43.49H222.278ZM242.065 43.49L238.248 34.14H239.436L243.242 43.49H242.065ZM255.257 43.49L251.44 34.14H252.628L256.434 43.49H255.257ZM257.98 43.545V42.5H263.084V43.545H257.98ZM268.448 43.49L264.631 34.14H265.819L269.625 43.49H268.448ZM281.64 43.49L277.823 34.14H279.011L282.817 43.49H281.64ZM294.831 43.49L291.014 34.14H292.202L296.008 43.49H294.831ZM297.555 43.545V42.5H302.659V43.545H297.555ZM308.022 43.49L304.205 34.14H305.393L309.199 43.49H308.022ZM327.809 43.49L323.992 34.14H325.18L328.986 43.49H327.809ZM341.001 43.49L337.184 34.14H338.372L342.178 43.49H341.001ZM343.725 43.545V42.5H348.829V43.545H343.725ZM350.32 43.545V42.5H355.424V43.545H350.32ZM356.916 43.545V42.5H362.02V43.545H356.916ZM363.512 43.545V42.5H368.616V43.545H363.512ZM370.107 43.545V42.5H375.211V43.545H370.107ZM380.575 43.49L376.758 34.14H377.946L381.752 43.49H380.575ZM400.362 43.49L396.545 34.14H397.733L401.539 43.49H400.362ZM413.554 43.49L409.737 34.14H410.925L414.731 43.49H413.554ZM416.277 43.545V42.5H421.381V43.545H416.277ZM426.745 43.49L422.928 34.14H424.116L427.922 43.49H426.745ZM433.341 43.49L429.524 34.14H430.712L434.518 43.49H433.341ZM436.713 38.331V34.8H438.011V38.331H436.713ZM439.221 38.331V34.8H440.519V38.331H439.221ZM446.532 43.49L442.715 34.14H443.903L447.709 43.49H446.532ZM449.256 43.545V42.5H454.36V43.545H449.256ZM459.724 43.49L455.907 34.14H457.095L460.901 43.49H459.724ZM479.511 43.49L475.694 34.14H476.882L480.688 43.49H479.511ZM492.702 43.49L488.885 34.14H490.073L493.879 43.49H492.702ZM495.426 43.545V42.5H500.53V43.545H495.426ZM502.021 43.545V42.5H507.125V43.545H502.021ZM508.617 43.545V42.5H513.721V43.545H508.617ZM515.213 43.545V42.5H520.317V43.545H515.213ZM521.809 43.545V42.5H526.913V43.545H521.809ZM532.276 43.49L528.459 34.14H529.647L533.453 43.49H532.276ZM571.85 43.49L568.033 34.14H569.221L573.027 43.49H571.85ZM585.042 43.49L581.225 34.14H582.413L586.219 43.49H585.042ZM587.766 43.545V42.5H592.87V43.545H587.766ZM598.233 43.49L594.416 34.14H595.604L599.41 43.49H598.233ZM611.425 43.49L607.608 34.14H608.796L612.602 43.49H611.425ZM614.148 43.545V42.5H619.252V43.545H614.148ZM624.616 43.49L620.799 34.14H621.987L625.793 43.49H624.616ZM644.403 43.49L640.586 34.14H641.774L645.58 43.49H644.403ZM657.595 43.49L653.778 34.14H654.966L658.772 43.49H657.595ZM660.318 43.545V42.5H665.422V43.545H660.318ZM670.786 43.49L666.969 34.14H668.157L671.963 43.49H670.786ZM17.8114 57.49L13.9944 48.14H15.1824L18.9884 57.49H17.8114ZM20.5901 57.49L24.3961 48.14H25.5841L21.7671 57.49H20.5901ZM27.1308 57.545V56.5H32.2348V57.545H27.1308ZM33.7265 57.545V56.5H38.8305V57.545H33.7265ZM40.3222 57.545V56.5H45.4262V57.545H40.3222ZM46.9179 57.545V56.5H52.0219V57.545H46.9179ZM53.5136 57.545V56.5H58.6176V57.545H53.5136ZM60.1643 57.49L63.9703 48.14H65.1583L61.3413 57.49H60.1643ZM90.3641 57.49L86.5471 48.14H87.7351L91.5411 57.49H90.3641ZM93.1428 57.49L96.9488 48.14H98.1368L94.3198 57.49H93.1428ZM99.6835 57.545V56.5H104.788V57.545H99.6835ZM106.279 57.545V56.5H111.383V57.545H106.279ZM112.875 57.545V56.5H117.979V57.545H112.875ZM119.471 57.545V56.5H124.575V57.545H119.471ZM126.066 57.545V56.5H131.17V57.545H126.066ZM132.717 57.49L136.523 48.14H137.711L133.894 57.49H132.717ZM162.917 57.49L159.1 48.14H160.288L164.094 57.49H162.917ZM165.696 57.49L169.502 48.14H170.69L166.873 57.49H165.696ZM172.236 57.545V56.5H177.34V57.545H172.236ZM178.887 57.49L182.693 48.14H183.881L180.064 57.49H178.887ZM202.491 57.49L198.674 48.14H199.862L203.668 57.49H202.491ZM205.27 57.49L209.076 48.14H210.264L206.447 57.49H205.27ZM211.811 57.545V56.5H216.915V57.545H211.811ZM218.461 57.49L222.267 48.14H223.455L219.638 57.49H218.461ZM248.661 57.49L244.844 48.14H246.032L249.838 57.49H248.661ZM251.44 57.49L255.246 48.14H256.434L252.617 57.49H251.44ZM257.98 57.545V56.5H263.084V57.545H257.98ZM264.631 57.49L268.437 48.14H269.625L265.808 57.49H264.631ZM288.235 57.49L284.418 48.14H285.606L289.412 57.49H288.235ZM291.014 57.49L294.82 48.14H296.008L292.191 57.49H291.014ZM297.555 57.545V56.5H302.659V57.545H297.555ZM304.205 57.49L308.011 48.14H309.199L305.382 57.49H304.205ZM334.405 57.49L330.588 48.14H331.776L335.582 57.49H334.405ZM337.184 57.49L340.99 48.14H342.178L338.361 57.49H337.184ZM343.725 57.545V56.5H348.829V57.545H343.725ZM350.32 57.545V56.5H355.424V57.545H350.32ZM356.916 57.545V56.5H362.02V57.545H356.916ZM363.512 57.545V56.5H368.616V57.545H363.512ZM370.107 57.545V56.5H375.211V57.545H370.107ZM376.758 57.49L380.564 48.14H381.752L377.935 57.49H376.758ZM406.958 57.49L403.141 48.14H404.329L408.135 57.49H406.958ZM409.737 57.49L413.543 48.14H414.731L410.914 57.49H409.737ZM416.277 57.545V56.5H421.381V57.545H416.277ZM422.928 57.49L426.734 48.14H427.922L424.105 57.49H422.928ZM439.936 57.49L436.119 48.14H437.307L441.113 57.49H439.936ZM442.715 57.49L446.521 48.14H447.709L443.892 57.49H442.715ZM449.256 57.545V56.5H454.36V57.545H449.256ZM455.907 57.49L459.713 48.14H460.901L457.084 57.49H455.907ZM486.106 57.49L482.289 48.14H483.477L487.283 57.49H486.106ZM488.885 57.49L492.691 48.14H493.879L490.062 57.49H488.885ZM495.426 57.545V56.5H500.53V57.545H495.426ZM502.021 57.545V56.5H507.125V57.545H502.021ZM508.617 57.545V56.5H513.721V57.545H508.617ZM515.213 57.545V56.5H520.317V57.545H515.213ZM521.809 57.545V56.5H526.913V57.545H521.809ZM528.459 57.49L532.265 48.14H533.453L529.636 57.49H528.459ZM578.446 57.49L574.629 48.14H575.817L579.623 57.49H578.446ZM581.225 57.49L585.031 48.14H586.219L582.402 57.49H581.225ZM587.766 57.545V56.5H592.87V57.545H587.766ZM594.416 57.49L598.222 48.14H599.41L595.593 57.49H594.416ZM604.829 57.49L601.012 48.14H602.2L606.006 57.49H604.829ZM607.608 57.49L611.414 48.14H612.602L608.785 57.49H607.608ZM614.148 57.545V56.5H619.252V57.545H614.148ZM620.799 57.49L624.605 48.14H625.793L621.976 57.49H620.799ZM650.999 57.49L647.182 48.14H648.37L652.176 57.49H650.999ZM653.778 57.49L657.584 48.14H658.772L654.955 57.49H653.778ZM660.318 57.545V56.5H665.422V57.545H660.318ZM666.969 57.49L670.775 48.14H671.963L668.146 57.49H666.969Z" fill="white"/>
</svg>
