<svg width="60" height="61" viewBox="0 0 60 61" fill="none" xmlns="http://www.w3.org/2000/svg">
<path d="M52.25 23.375V18.625H49.875V13.875H47.5V11.5H45.125V9.125H40.375V6.75H35.625V4.375H21.375V6.75H16.625V9.125H11.875V11.5H9.5V13.875H7.125V18.625H4.75V23.375H2.375V40H4.75V42.375H7.125V47.125H9.5V49.5H11.875V51.875H16.625V54.25H21.375V56.625H35.625V54.25H40.375V51.875H45.125V49.5H47.5V47.125H49.875V42.375H52.25V37.625H54.625V23.375H52.25ZM49.875 25.75V35.25H42.75V25.75H49.875ZM38 11.5H40.375V13.875H45.125V18.625H47.5V21H40.375V13.875H38V11.5ZM33.25 44.75V49.5H30.875V51.875H26.125V49.5H23.75V44.75H21.375V40H35.625V44.75H33.25ZM38 25.75V35.25H19V25.75H38ZM21.375 16.25H23.75V11.5H26.125V9.125H30.875V11.5H33.25V16.25H35.625V21H21.375V16.25ZM9.5 18.625H11.875V13.875H16.625V11.5H19V13.875H16.625V21H9.5V18.625ZM7.125 35.25V25.75H14.25V35.25H7.125ZM11.875 47.125V42.375H9.5V40H16.625V47.125H19V49.5H16.625V47.125H11.875ZM45.125 42.375V47.125H40.375V49.5H38V47.125H40.375V40H47.5V42.375H45.125Z" fill="#16A34A"/>
</svg>
