<svg width="60" height="61" viewBox="0 0 60 61" fill="none" xmlns="http://www.w3.org/2000/svg">
<path d="M20 38H22.5V43H20V45.5H17.5V48H2.5V43H17.5V40.5H20V38Z" fill="#16A34A"/>
<path d="M52.5 40.5H55V45.5H52.5V48H50V50.5H47.5V53H45V45.5H35V43H32.5V40.5H30V35.5H27.5V33H25V28H22.5V25.5H20V20.5H17.5V18H2.5V13H20V15.5H22.5V20.5H25V25.5H27.5V28H30V33H32.5V35.5H35V40.5H45V33H47.5V35.5H50V38H52.5V40.5Z" fill="#16A34A"/>
<path d="M55 13V18H52.5V20.5H50V23H47.5V25.5H45V18H35V20.5H32.5V23H30V18H32.5V15.5H35V13H45V5.5H47.5V8H50V10.5H52.5V13H55Z" fill="#16A34A"/>
</svg>
