<svg width="60" height="61" viewBox="0 0 60 61" fill="none" xmlns="http://www.w3.org/2000/svg">
<path d="M50 48H47.5V50.5H50V48Z" fill="#16A34A"/>
<path d="M45 48H42.5V50.5H45V48Z" fill="#16A34A"/>
<path d="M55 40.5V38H37.5V20.5H47.5V18H45V15.5H42.5V13H40V10.5H37.5V8H35V5.5H32.5V3H27.5V5.5H25V8H22.5V10.5H20V13H17.5V15.5H15V18H12.5V20.5H22.5V38H5V40.5H2.5V55.5H5V58H55V55.5H57.5V40.5H55ZM22.5 15.5H25V13H27.5V10.5H32.5V13H35V15.5H37.5V18H32.5V40.5H27.5V18H22.5V15.5ZM52.5 53H7.5V43H25V45.5H35V43H52.5V53Z" fill="#16A34A"/>
</svg>
