<svg width="1358" height="767" viewBox="0 0 1358 767" fill="none" xmlns="http://www.w3.org/2000/svg">
<g opacity="0.3" clip-path="url(#clip0_391_1035)">
<path d="M1339.88 766.345V0.0999756" stroke="#727272" stroke-dasharray="6 6"/>
<path d="M1293.16 766.345V0.0999756" stroke="#727272" stroke-dasharray="6 6"/>
<path d="M1246.44 766.345V0.0999756" stroke="#727272" stroke-dasharray="6 6"/>
<path d="M1199.72 766.345V0.0999756" stroke="#727272" stroke-dasharray="6 6"/>
<path d="M1153 766.345V0.0999756" stroke="#727272" stroke-dasharray="6 6"/>
<path d="M1106.27 766.345V0.0999756" stroke="#727272" stroke-dasharray="6 6"/>
<path d="M1059.55 766.345V0.0999756" stroke="#727272" stroke-dasharray="6 6"/>
<path d="M1012.83 766.345V0.0999756" stroke="#727272" stroke-dasharray="6 6"/>
<path d="M966.109 766.345V0.0999756" stroke="#727272" stroke-dasharray="6 6"/>
<path d="M919.385 766.345V0.0999756" stroke="#727272" stroke-dasharray="6 6"/>
<path d="M872.664 766.345V0.0999756" stroke="#727272" stroke-dasharray="6 6"/>
<path d="M825.944 766.345V0.0999756" stroke="#727272" stroke-dasharray="6 6"/>
<path d="M779.219 766.345V0.0999756" stroke="#727272" stroke-dasharray="6 6"/>
<path d="M732.492 766.345V0.0999756" stroke="#727272" stroke-dasharray="6 6"/>
<path d="M685.748 766.356V0.11145" stroke="#727272" stroke-dasharray="6 6"/>
<path d="M639.027 766.356V0.11145" stroke="#727272" stroke-dasharray="6 6"/>
<path d="M592.303 766.356V0.11145" stroke="#727272" stroke-dasharray="6 6"/>
<path d="M545.582 766.356V0.11145" stroke="#727272" stroke-dasharray="6 6"/>
<path d="M498.861 766.356V0.11145" stroke="#727272" stroke-dasharray="6 6"/>
<path d="M452.137 766.356V0.11145" stroke="#727272" stroke-dasharray="6 6"/>
<path d="M405.416 766.356V0.11145" stroke="#727272" stroke-dasharray="6 6"/>
<path d="M358.689 766.356L358.69 0.111694" stroke="#727272" stroke-dasharray="6 6"/>
<path d="M311.971 766.356V0.111694" stroke="#727272" stroke-dasharray="6 6"/>
<path d="M265.254 766.356V0.11145" stroke="#727272" stroke-dasharray="6 6"/>
<path d="M218.523 766.356L218.524 0.111694" stroke="#727272" stroke-dasharray="6 6"/>
<path d="M171.799 766.356V0.11145" stroke="#727272" stroke-dasharray="6 6"/>
<path d="M125.078 766.356V0.11145" stroke="#727272" stroke-dasharray="6 6"/>
<path d="M78.3574 766.356L78.3575 0.111694" stroke="#727272" stroke-dasharray="6 6"/>
<path d="M31.6426 766.356L31.6427 0.11145" stroke="#727272" stroke-dasharray="6 6"/>
<path d="M0.365234 733.151L1466.51 733.152" stroke="#727272" stroke-dasharray="6 6"/>
<path d="M0.365234 686.429H1466.51" stroke="#727272" stroke-dasharray="6 6"/>
<path d="M0.365234 639.706H1466.51" stroke="#727272" stroke-dasharray="6 6"/>
<path d="M0.365234 592.983L1466.51 592.984" stroke="#727272" stroke-dasharray="6 6"/>
<path d="M0.365234 546.261H1466.51" stroke="#727272" stroke-dasharray="6 6"/>
<path d="M0.365234 499.54H1466.51" stroke="#727272" stroke-dasharray="6 6"/>
<path d="M0.365234 452.815L1466.51 452.816" stroke="#727272" stroke-dasharray="6 6"/>
<path d="M0.365234 406.093H1466.51" stroke="#727272" stroke-dasharray="6 6"/>
<path d="M0.365234 359.372H1466.51" stroke="#727272" stroke-dasharray="6 6"/>
<path d="M0.365234 312.649L1466.51 312.65" stroke="#727272" stroke-dasharray="6 6"/>
<path d="M0.365234 265.927H1466.51" stroke="#727272" stroke-dasharray="6 6"/>
<path d="M0.365234 219.206H1466.51" stroke="#727272" stroke-dasharray="6 6"/>
<path d="M0.365234 172.483L1466.51 172.484" stroke="#727272" stroke-dasharray="6 6"/>
<path d="M0.365234 125.761H1466.51" stroke="#727272" stroke-dasharray="6 6"/>
<path d="M0.365234 79.0381L1466.51 79.0383" stroke="#727272" stroke-dasharray="6 6"/>
<path d="M0.365234 32.3174L1466.51 32.3176" stroke="#727272" stroke-dasharray="6 6"/>
</g>
<defs>
<clipPath id="clip0_391_1035">
<rect width="1358" height="767" fill="white"/>
</clipPath>
</defs>
</svg>
