<svg width="60" height="61" viewBox="0 0 60 61" fill="none" xmlns="http://www.w3.org/2000/svg">
<path d="M47.5 23V25.5H45V28H42.5V30.5H40V33H37.5V35.5H35V38H32.5V40.5H30V43H25V40.5H22.5V38H20V35.5H17.5V33H15V30.5H17.5V28H20V30.5H22.5V33H25V35.5H30V33H32.5V30.5H35V28H37.5V25.5H40V23H42.5V20.5H45V23H47.5Z" fill="#16A34A"/>
<path d="M55 23V18H52.5V13H50V10.5H47.5V8H42.5V5.5H37.5V3H22.5V5.5H17.5V8H12.5V10.5H10V13H7.5V18H5V23H2.5V38H5V43H7.5V48H10V50.5H12.5V53H17.5V55.5H22.5V58H37.5V55.5H42.5V53H47.5V50.5H50V48H52.5V43H55V38H57.5V23H55ZM50 38V43H47.5V48H42.5V50.5H37.5V53H22.5V50.5H17.5V48H12.5V43H10V38H7.5V23H10V18H12.5V13H17.5V10.5H22.5V8H37.5V10.5H42.5V13H47.5V18H50V23H52.5V38H50Z" fill="#16A34A"/>
</svg>
